<?xml version="1.0" encoding="utf-8"?>
<!-- Generator: Adobe Illustrator 18.0.0, SVG Export Plug-In . SVG Version: 6.00 Build 0)  -->
<!DOCTYPE svg PUBLIC "-//W3C//DTD SVG 1.1//EN" "http://www.w3.org/Graphics/SVG/1.1/DTD/svg11.dtd">
<svg version="1.1" id="Layer_1" xmlns="http://www.w3.org/2000/svg" xmlns:xlink="http://www.w3.org/1999/xlink" x="0px" y="0px"
	 width="1400px" height="980px" viewBox="0 0 1400 980" enable-background="new 0 0 1400 980" xml:space="preserve">
<g>
	<rect fill="#1E1D37" width="1400" height="980"/>
	<g>
		<circle fill="#666666" cx="158.2" cy="804" r="49"/>
		<path fill="#808080" d="M204.8,788.7c-0.1-0.4-0.3-0.9-0.4-1.3c0-0.1-0.1-0.2-0.1-0.3c-0.2-0.4-0.3-0.8-0.5-1.3c0,0,0,0,0,0
			c-2.3-5.9-5.8-11.4-10.5-16.2c-12.5-12.8-30.4-17.2-46.6-13.3l-3.2,3.1c-2.1,2.1-2.2,5.5-0.1,7.6c2,2.1,5.3,2.2,7.5,0.2l-4.9,4.8
			c-2.1,2.1-2.2,5.5-0.1,7.6h0c2.1,2.1,5.5,2.2,7.6,0.1l-11.6,11.4c-2.1,2.1-2.2,5.5-0.1,7.6l0,0c2.1,2.1,5.5,2.2,7.6,0.1l5.8-5.7
			c-2.1,2.1-2.2,5.5-0.1,7.6l0,0c2.1,2.1,5.5,2.2,7.6,0.1l9.6-9.5c-0.7,1.9-0.3,4,1.2,5.6c2.1,2.1,5.5,2.2,7.6,0.1l-11.3,11.1
			c-2.1,2.1-2.2,5.5-0.1,7.6s5.5,2.2,7.6,0.1l9.5-9.3c-2.1,2.1-2.2,5.5-0.1,7.6c2.1,2.1,5.5,2.2,7.6,0.1l4.5-4.4c-0.9,2-0.6,4.4,1,6
			h0c1.4,1.4,3.5,1.9,5.3,1.4C208,808,207.8,798,204.8,788.7L204.8,788.7z"/>
	</g>
	<g>
		<path fill="#E6E6E6" d="M701.5,874.6c-79.1,0-155-24-219.5-69.3C418.9,761,371.2,699.6,344.1,627.8c-0.7-1.8,0.2-3.8,2-4.5
			c1.8-0.7,3.8,0.2,4.5,2C377.3,695.8,424.1,756,486,799.6c63.3,44.5,137.8,68,215.5,68c16.3,0,32.8-1.1,48.9-3.2
			c1.9-0.2,3.7,1.1,3.9,3c0.3,1.9-1.1,3.7-3,3.9C734.9,873.5,718.2,874.6,701.5,874.6z"/>
	</g>
	<path fill="#65C8D0" d="M1202.9,961.2c0-27.9-22.6-50.4-50.4-50.4c-0.1,0-0.2,0-0.3,0c-1-19.3-15.1-35.2-33.6-38.9
		c0.4-1.9,0.6-3.9,0.6-5.9c0-17.3-14.1-31.4-31.4-31.4c-12.4,0-23.1,7.2-28.2,17.7c-3.5-4.2-8.8-6.9-14.7-6.9
		c-1.9,0-3.6,0.3-5.3,0.8c-2.2-11.1-12-19.5-23.8-19.5c-13.3,0-24.1,10.8-24.3,24.1c-4.6-3.2-10.1-5.1-16-5.2
		c1.2-3.3,1.8-6.9,1.8-10.7c0-17.9-14.5-32.5-32.5-32.5c-17.9,0-32.5,14.5-32.5,32.5c0,1.3,0.1,2.6,0.2,3.8
		c-7-3.9-15.1-6.1-23.7-6.1c-8.2,0-15.9,2-22.7,5.6c-1.9-20.1-18.8-35.8-39.4-35.8c-21.8,0-39.5,17.7-39.5,39.5
		c0,2.6,0.3,5.2,0.7,7.7c-1.5-0.4-3-0.6-4.6-0.6c-4.9,0-9.3,2-12.5,5.2c-6.8-8.4-17.3-13.8-29-13.8c-20.5,0-37,16.5-37.3,36.9
		c-5.6-2-11.6-3.2-17.8-3.2c-28.5,0-51.6,23.1-51.6,51.6c0,28.5,23.1,51.6,51.6,51.6h417.8h95.7
		C1202,972.1,1202.9,966.8,1202.9,961.2z"/>
	<g>
		<path fill="#F7931E" d="M876.9,857.6l9,3l6.8,4.5l5.3,7.5l2.8,4.7c1-1.6,1.8-3.4,2.3-5.5l17.6-75.9h-66.5l14.3,61.7H876.9z"/>
		<path fill="#F2F2F2" d="M887.5,577.3c-20.9,13.3-45.6,35.2-45.6,85.5c0,50.4,12.4,133.1,12.4,133.1h33.3h33.3
			c0,0,12.4-82.7,12.4-133.1C933.1,612.5,908.4,590.6,887.5,577.3z"/>
		<path fill="#E5E5E5" d="M887.5,577.3C887.5,577.3,887.5,577.3,887.5,577.3l0,218.6h0h33.3c0,0,12.4-82.7,12.4-133.1
			C933.1,612.5,908.4,590.6,887.5,577.3z"/>
		<path fill="#FF3A61" d="M912.2,598.2c-7.7-9.1-16.5-15.7-24.7-20.9c-8.2,5.2-17,11.8-24.7,20.9H912.2z"/>
		<path fill="#FCEE21" d="M867.4,795.9l13,56c1.2,5.2,5.8,5.7,7.1,5.7c1.4,0,5.9-0.4,7.1-5.7l13-56H867.4z"/>
		<path fill="#FF3A61" d="M820.9,810.3c-0.2,5.6,6.6,8.5,10.5,4.5c10.4-10.8,22.8-18.9,22.8-18.9s-5.3-35.4-8.9-73.9
			C825.9,756.8,821.6,790.6,820.9,810.3z"/>
		<path fill="#FF3A61" d="M929.7,722c-3.7,38.6-8.9,73.9-8.9,73.9s12.4,8.1,22.8,18.9c3.9,4,10.7,1.2,10.5-4.5
			C953.4,790.6,949.1,756.8,929.7,722z"/>
		<path fill="#FF3A61" d="M891.9,739.6l-4.4-13.2v0v0l0,0v0l-4.4,13.2c-8.2,24.5-8.2,51,0,75.5l4.4,13.2v0l0,0v0v0l4.4-13.2
			C900.1,790.6,900.1,764.1,891.9,739.6z"/>
		<circle fill="#E52C58" cx="887.5" cy="657" r="25.4"/>
		<circle fill="#77C1DB" cx="887.5" cy="657" r="21.3"/>
		<path fill="#E52C58" d="M887.5,726.4L887.5,726.4L887.5,726.4L887.5,726.4L887.5,726.4l0,101.9l0,0v0l0,0v0l4.4-13.2
			c8.2-24.5,8.2-51,0-75.5L887.5,726.4z"/>
		<path fill="#E52C58" d="M887.5,598.2h24.7c-7.7-9.1-16.5-15.7-24.7-20.9V598.2z"/>
	</g>
	<path fill="#FFFFFF" d="M767.3,919.2c-2,0-3.9,0.4-5.6,1c0-0.1,0-0.1,0-0.2c0-10.5-8.5-19.1-19.1-19.1c-7.4,0-13.8,4.2-17,10.4
		c3.5-3.7,8.4-6.1,13.9-6.1c9.7,0,17.6,7.2,18.9,16.5c0.1,0.8,0.2,1.7,0.2,2.5c0,0.6-0.1,1.2-0.1,1.7c0.8-0.5,1.6-1,2.5-1.4
		c1.9-0.8,4-1.3,6.2-1.3c8.1,0,14.8,6,15.9,13.9c0.1-0.7,0.2-1.4,0.2-2.2C783.3,926.4,776.2,919.2,767.3,919.2z"/>
	<path fill="#FFFFFF" d="M916.9,866.9c-6.5,0-12.2,3.1-15.8,7.9c-4.7-13-17.1-22.3-31.7-22.3c-18.6,0-33.8,15.1-33.8,33.8
		c0,2.2,0.2,4.3,0.6,6.4c0.3-18,14.9-32.6,33.1-32.6c13,0,24.2,7.5,29.6,18.4c0.7,1.5,1.4,3,1.9,4.6c0.5-1,1.1-2,1.7-2.9
		c3.6-5,9.4-8.3,16-8.3c7.8,0,14.4,4.5,17.7,11C934.6,873.8,926.6,866.9,916.9,866.9z"/>
	<g>
		<path fill="#FFFFFF" d="M1002.2,870.2c-6.4-4.2-10.7-11.4-10.8-19.6c-1.6-1.1-3.4-2.1-5.2-2.9c-0.1,0.8-0.1,1.7-0.1,2.6
			c0,8.3,4.3,15.7,10.8,19.9c0.9-0.1,1.7-0.2,2.6-0.2C1000.4,869.9,1001.3,870,1002.2,870.2z"/>
		<path fill="#FFFFFF" d="M1009.9,874.1C1009.8,874.1,1009.8,874.1,1009.9,874.1c-4.9,0-9.3-1.4-13.1-3.9
			c-7.3,1.2-12.8,7.5-12.8,15.2c0,2.7,0.7,5.2,1.9,7.3c-0.2-1-0.3-2-0.3-3c0-8.5,6.9-15.4,15.4-15.4c5.8,0,10.9,3.3,13.5,8.1
			C1013.9,879.1,1012.2,876.2,1009.9,874.1z"/>
		<path fill="#FFFFFF" d="M1009.9,874.1c-0.3-0.3-0.7-0.6-1-0.9c-2.4-0.7-4.6-1.7-6.6-3c-0.9-0.2-1.8-0.3-2.8-0.3
			c-0.9,0-1.8,0.1-2.6,0.2C1000.5,872.6,1005,874.1,1009.9,874.1C1009.8,874.1,1009.8,874.1,1009.9,874.1z"/>
	</g>
	<path fill="#FFFFFF" d="M770.9,854c-0.6-0.8-1.3-1.5-2-2.2c-8.6,11.1-8.5,20.8-8.5,20.8C763.1,860.7,770.9,854,770.9,854z"/>
	<g>
		<path fill="#F59913" d="M508.4,155.1c-18.1-15-45-12.4-60,5.7L347,283.5c-3,3.6-2.5,9,1.1,12c3.6,3,9,2.5,12-1.1l30.4-36.8
			c3-3.6,8.4-4.1,12-1.1c3.6,3,4.1,8.4,1.1,12l-17.1,20.7c-3,3.6-2.5,9,1.1,12c3.6,3,9,2.5,12-1.1l39.5-47.8c3-3.6,8.4-4.1,12-1.1
			c3.6,3,4.1,8.4,1.1,12l-26.2,31.6c-3,3.6-2.5,9,1.1,12c3.6,3,9,2.5,12-1.1l74.8-90.5C529.1,196.9,526.6,170.1,508.4,155.1z"/>
		<circle fill="#F15A24" cx="481.3" cy="187.9" r="25.8"/>
		
			<ellipse transform="matrix(0.7709 0.637 -0.637 0.7709 229.9734 -263.5059)" fill="#F9C73D" cx="481.3" cy="187.9" rx="17.3" ry="17.6"/>
	</g>
	<g>
		<path fill="#F9C73D" d="M586.9,411.2c7.1-7.9,6.5-20.2-1.4-27.3c-7.9-7.1-20.2-6.5-27.3,1.4c-1,1.1-1.8,2.2-2.5,3.5l-68.9,96.5
			c-3.9,5.5,3.3,11.9,8.3,7.5l88.6-78.7C584.9,413.2,586,412.3,586.9,411.2z"/>
		<circle fill="#662D91" cx="572.6" cy="398.3" r="10.8"/>
	</g>
	<g>
		<path fill="#FF3A61" d="M571.4,658.9l-4.4-4.2l6.3-6.5c1.7-1.8,1.6-4.6-0.1-6.3l-48.5-46.7c-1.8-1.7-4.6-1.6-6.3,0.1l-18,18.7
			c-1.7,1.8-1.6,4.6,0.1,6.3l48.5,46.7c1.8,1.7,4.6,1.6,6.3-0.1l6.3-6.5l4.4,4.2L571.4,658.9z"/>
		<g>
			
				<rect x="514" y="606.8" transform="matrix(0.6932 -0.7207 0.7207 0.6932 -289.9949 565.441)" fill="#E6E6E6" width="10.4" height="33.1"/>
			
				<rect x="511.9" y="608.6" transform="matrix(0.7207 0.6932 -0.6932 0.7207 573.114 -194.9092)" fill="#E6E6E6" width="33.1" height="10.4"/>
			
				<rect x="549.1" y="622.2" transform="matrix(0.6932 -0.7207 0.7207 0.6932 -290.275 595.4426)" fill="#E6E6E6" width="10.4" height="33.1"/>
			
				<rect x="528.6" y="643.1" transform="matrix(-0.7207 -0.6932 0.6932 -0.7207 488.5821 1493.4209)" fill="#E6E6E6" width="33.1" height="10.4"/>
		</g>
		<path fill="#FF3A61" d="M590.6,677.3l4.4,4.2l6.3-6.5c1.7-1.8,4.5-1.8,6.3-0.1l48.5,46.7c1.8,1.7,1.8,4.5,0.1,6.3l-18,18.7
			c-1.7,1.8-4.5,1.8-6.3,0.1L583.4,700c-1.8-1.7-1.8-4.5-0.1-6.3l6.3-6.5l-4.4-4.2L590.6,677.3z"/>
		<g>
			
				<rect x="622.8" y="711.5" transform="matrix(0.6932 -0.7207 0.7207 0.6932 -332.0427 675.9505)" fill="#E6E6E6" width="10.4" height="33.1"/>
			
				<rect x="620.7" y="713.2" transform="matrix(-0.7207 -0.6932 0.6932 -0.7207 598.4375 1678.0145)" fill="#E6E6E6" width="33.1" height="10.4"/>
			
				<rect x="606.1" y="677" transform="matrix(0.6932 -0.7207 0.7207 0.6932 -312.3085 653.351)" fill="#E6E6E6" width="10.4" height="33.1"/>
			
				<rect x="585.6" y="697.9" transform="matrix(0.7207 0.6932 -0.6932 0.7207 655.6158 -221.048)" fill="#E6E6E6" width="33.1" height="10.4"/>
		</g>
		<path fill="#E6E6E6" d="M567.8,698.9l-17.1-16.5c-1.1-1.1-1.1-2.8-0.1-3.9l31.5-32.7c1.1-1.1,2.8-1.1,3.9-0.1l17.1,16.5
			c1.1,1.1,1.1,2.8,0.1,3.9l-31.5,32.7C570.7,699.9,568.9,699.9,567.8,698.9z"/>
		<path fill="#E6E6E6" d="M588,632.8c-2.6,7.6-0.7,16.4,5.5,22.3c6.2,5.9,15,7.4,22.5,4.6L588,632.8z"/>
		<path fill="#FF3A61" d="M615.2,660.7l-28.1-27c-1.4-1.3-1.4-3.6-0.1-5l0,0c1.3-1.4,3.6-1.4,5-0.1l28.1,27c1.4,1.3,1.4,3.6,0.1,5
			l0,0C618.8,662,616.6,662,615.2,660.7z"/>
		<path fill="#E6E6E6" d="M608.8,644.8l-5.6-5.4l2.7-2.8c1.5-1.6,4-1.6,5.5-0.1l0,0c1.6,1.5,1.6,4,0.1,5.5L608.8,644.8z"/>
		<path fill="#FF3A61" d="M556.5,672.4l-5.9,6.1c-1.1,1.1-1,2.8,0.1,3.9l17.1,16.5c1.1,1.1,2.8,1,3.9-0.1l5.9-6.1L556.5,672.4z"/>
	</g>
	<g>
		<path fill="#0CA580" d="M1070.9,486.3l-67.3,15.1c0,0,23.4,20.4,67.3,20.4c43.9,0,67.3-20.4,67.3-20.4L1070.9,486.3z"/>
		<path fill="#9CEFEF" d="M1107.1,513.6L1107.1,513.6c-23.1-9.6-49.1-9.6-72.3,0h0l-48.7,94.1h84.8h0h84.8L1107.1,513.6z"/>
		<path fill="#0FB996" d="M1141.9,473.1c-10-29.6-38-50.9-71-50.9c-33,0-61,21.3-71,50.9H1141.9z"/>
		<path fill="#7FDADD" d="M1128.3,474.4c-8.1-23.9-30.7-41.2-57.4-41.2c-26.7,0-49.3,17.2-57.4,41.2H1128.3z"/>
		<path fill="#E6E6E6" d="M1152.3,473.1H989.5c-3.9,0-7,3.2-7,7s3.2,7,7,7h8.8c-3.7,0-6.7,3-6.7,6.7v0.7c0,3.7,3,6.7,6.7,6.7h145.3
			c3.7,0,6.7-3,6.7-6.7v-0.7c0-3.7-3-6.7-6.7-6.7h8.8c3.9,0,7-3.2,7-7S1156.2,473.1,1152.3,473.1z"/>
		<path fill="#0CA580" d="M1025.7,530.3l10-18.3l-4.4-2.4l-10.4,19.1c-4.3,0.1-7.7,3.6-7.7,7.9c0,0.7,0.1,1.3,0.3,1.9h15.2
			c0.2-0.6,0.3-1.3,0.3-1.9C1028.9,534,1027.7,531.7,1025.7,530.3z"/>
		<path fill="#0CA580" d="M1116.1,530.3l-10-18.3l4.4-2.4l10.4,19.1c4.3,0.1,7.7,3.6,7.7,7.9c0,0.7-0.1,1.3-0.3,1.9h-15.2
			c-0.2-0.6-0.3-1.3-0.3-1.9C1112.9,534,1114.2,531.7,1116.1,530.3z"/>
		<g>
			<circle fill="#F15A24" cx="1015.8" cy="486.3" r="6"/>
			<circle fill="#FFAA00" cx="1015.8" cy="486.3" r="3.2"/>
			<circle fill="#F15A24" cx="1043.1" cy="486.3" r="6"/>
			<circle fill="#F15A24" cx="1070.4" cy="486.3" r="6"/>
			<circle fill="#F15A24" cx="1097.6" cy="486.3" r="6"/>
			<circle fill="#F15A24" cx="1124.9" cy="486.3" r="6"/>
			<circle fill="#FFAA00" cx="1043.1" cy="486.3" r="3.2"/>
			<circle fill="#FFAA00" cx="1070.4" cy="486.3" r="3.2"/>
			<circle fill="#FFAA00" cx="1097.6" cy="486.3" r="3.2"/>
			<circle fill="#FFAA00" cx="1124.9" cy="486.3" r="3.2"/>
		</g>
	</g>
	<circle fill="#69C095" cx="366.5" cy="114.1" r="37.9"/>
	<circle fill="#69C095" cx="1276.3" cy="835.5" r="19"/>
	<circle fill="#F2F2F2" cx="381.4" cy="95.2" r="6.3"/>
	<circle fill="#F2F2F2" cx="364.7" cy="106.1" r="4.5"/>
	<g>
		<path fill="#EA5807" d="M1172.6,80.3l13.6-11.7c5.4-4.7,13.8-2.8,16.7,3.8l7.2,16.5c2.1,4.8,7.4,7.4,12.5,6l17.3-4.6
			c6.9-1.9,13.7,3.5,13.4,10.7l-0.7,17.9c-0.2,5.3,3.5,9.9,8.7,10.9l17.6,3.3c7,1.3,10.8,9.1,7.4,15.4l-8.4,15.9
			c-2.5,4.7-1.1,10.4,3.1,13.5l14.4,10.7c5.8,4.3,5.8,12.9,0,17.1l-14.4,10.7c-4.2,3.1-5.5,8.9-3.1,13.5l8.4,15.9
			c3.3,6.3-0.4,14.1-7.4,15.4l-17.6,3.3c-5.2,1-8.9,5.6-8.7,10.9l0.7,17.9c0.3,7.2-6.5,12.5-13.4,10.7l-17.3-4.6
			c-5.1-1.4-10.4,1.2-12.5,6l-7.2,16.5c-2.9,6.6-11.3,8.5-16.7,3.8l-13.6-11.7c-4-3.4-9.9-3.4-13.9,0l-13.6,11.7
			c-5.4,4.7-13.8,2.8-16.7-3.8l-7.2-16.5c-2.1-4.8-7.4-7.4-12.5-6l-17.3,4.6c-6.9,1.9-13.7-3.5-13.4-10.7l0.7-17.9
			c0.2-5.3-3.5-9.9-8.7-10.9l-17.6-3.3c-7-1.3-10.8-9.1-7.4-15.4l8.4-15.9c2.5-4.7,1.1-10.4-3.1-13.5l-14.4-10.7
			c-5.8-4.3-5.8-12.9,0-17.1l14.4-10.7c4.2-3.1,5.5-8.9,3.1-13.5l-8.4-15.9c-3.3-6.3,0.4-14.1,7.4-15.4l17.6-3.3
			c5.2-1,8.9-5.6,8.7-10.9l-0.7-17.9c-0.3-7.2,6.5-12.5,13.4-10.7l17.3,4.6c5.1,1.4,10.4-1.2,12.5-6l7.2-16.5
			c2.9-6.6,11.3-8.5,16.7-3.8l13.6,11.7C1162.7,83.7,1168.6,83.7,1172.6,80.3z"/>
		<circle fill="#F7931E" cx="1165.6" cy="197.2" r="91.7"/>
		<circle fill="#F4B821" cx="1165.6" cy="197.2" r="61.6"/>
	</g>
	<g>
		<path fill="#F2F2F2" d="M476.3,365.4c-0.6,0-1.2-0.1-1.7-0.4c-1.7-0.9-2.3-3.1-1.4-4.8C518.8,278,605.5,227,699.4,227
			c59.5,0,117.6,20.7,163.6,58.4c1.5,1.2,1.7,3.4,0.5,5c-1.2,1.5-3.4,1.7-5,0.5C813.8,254.2,757.3,234,699.4,234
			c-91.3,0-175.6,49.7-220,129.6C478.8,364.8,477.6,365.4,476.3,365.4z"/>
	</g>
	<g>
		<path fill="#F2F2F2" d="M459.9,401.3c-0.4,0-0.8-0.1-1.2-0.2c-1.8-0.7-2.8-2.7-2.1-4.5c2.4-6.5,5-12.9,7.9-19.1
			c0.8-1.8,2.9-2.5,4.7-1.7c1.8,0.8,2.5,2.9,1.7,4.7c-2.8,6.1-5.4,12.3-7.7,18.6C462.7,400.4,461.4,401.3,459.9,401.3z"/>
	</g>
	<g>
		<path fill="#F2F2F2" d="M444.5,488.9c-1.9,0-3.5-1.6-3.5-3.5c0-18.5,2-37,5.8-54.9c0.4-1.9,2.3-3.1,4.2-2.7
			c1.9,0.4,3.1,2.3,2.7,4.2c-3.8,17.4-5.7,35.4-5.7,53.4C448,487.3,446.4,488.9,444.5,488.9z"/>
	</g>
	<circle fill="#FF3D58" cx="860.8" cy="288.1" r="20.6"/>
	<g>
		<circle fill="#33B8E2" cx="702.9" cy="521.3" r="77.8"/>
		<path fill="#35D344" d="M712.6,528.1l-20.2,15.2c-3.3,2.5-7.9,1.8-10.4-1.5c-2.5-3.3-1.8-7.9,1.5-10.4l11.6-8.7
			c3.3-2.5,3.9-7.1,1.5-10.4l0,0c-2.5-3.3-7.1-3.9-10.4-1.5l-23,17.4c-3.3,2.5-7.9,1.8-10.4-1.5c-2.5-3.3-1.8-7.9,1.5-10.4l7.6-5.7
			c3.3-2.5,3.9-7.1,1.5-10.4l0,0c-2.5-3.3-7.1-3.9-10.4-1.5l-27.7,20.9c-0.3,16.8,4.7,33.9,15.7,48.4c13.2,17.5,32.4,27.9,52.6,30.4
			l31.9-24c3.3-2.5,3.9-7.1,1.5-10.4c-2.5-3.3-7.1-3.9-10.4-1.5l-3.9,2.9c-3.3,2.5-7.9,1.8-10.4-1.5c-2.5-3.3-1.8-7.9,1.5-10.4
			l18.1-13.7c3.3-2.5,3.9-7.1,1.5-10.4C720.6,526.3,715.9,525.7,712.6,528.1z"/>
		<g>
			<path fill="#35D344" d="M751.9,536.4c-3.3,2.5-3.9,7.1-1.5,10.4c2.5,3.3,7.1,3.9,10.4,1.5l3.9-2.9c3.3-2.5,7.9-1.8,10.4,1.5
				c0.3,0.4,0.6,0.9,0.8,1.4c3.9-10.7,5.5-22.1,4.6-33.4L751.9,536.4z"/>
			<path fill="#35D344" d="M770.8,559.4l-15.3,11.5c-3,2.3-3.8,6.3-2,9.5C760.6,574.3,766.4,567.2,770.8,559.4z"/>
		</g>
		<path fill="#35D344" d="M765.1,474.4c-15.7-20.8-39.8-31.5-63.9-30.9c-0.5,1-1.2,1.9-2.2,2.7l-18.1,13.7
			c-3.3,2.5-3.9,7.1-1.5,10.4c2.5,3.3,7.1,3.9,10.4,1.5l20.2-15.2c3.3-2.5,7.9-1.8,10.4,1.5c2.5,3.3,1.8,7.9-1.5,10.4l-11.6,8.7
			c-3.3,2.5-3.9,7.1-1.5,10.4l0,0c2.5,3.3,7.1,3.9,10.4,1.5l23-17.4c3.3-2.5,7.9-1.8,10.4,1.5c2.5,3.3,1.8,7.9-1.5,10.4l-7.6,5.7
			c-3.3,2.5-3.9,7.1-1.5,10.4l0,0c2.5,3.3,7.1,3.9,10.4,1.5l21.9-16.5C769.6,481,767.5,477.6,765.1,474.4z"/>
	</g>
	<circle fill="#F4B821" cx="725.6" cy="162.1" r="39.2"/>
	<path fill="#E6E6E6" d="M298.2,549.1h-35.1c-1,0-1.8-0.8-1.8-1.8c0-1,0.8-1.8,1.8-1.8h35.1c1,0,1.8,0.8,1.8,1.8
		C299.9,548.4,299.1,549.1,298.2,549.1z"/>
	<path fill="#E6E6E6" d="M285.1,659.4h-22c-1,0-1.8-0.8-1.8-1.8s0.8-1.8,1.8-1.8h22c1,0,1.8,0.8,1.8,1.8S286,659.4,285.1,659.4z"/>
	<path fill="#E6E6E6" d="M309.2,659.4h-11c-1,0-1.8-0.8-1.8-1.8s0.8-1.8,1.8-1.8h11c1,0,1.8,0.8,1.8,1.8S310.1,659.4,309.2,659.4z"
		/>
	<path fill="#E6E6E6" d="M494.2,883.5h-36.1c-1,0-1.8-0.8-1.8-1.8s0.8-1.8,1.8-1.8h36.1c1,0,1.8,0.8,1.8,1.8
		S495.2,883.5,494.2,883.5z"/>
	<path fill="#E6E6E6" d="M504.7,897.1h-21c-1,0-1.8-0.8-1.8-1.8s0.8-1.8,1.8-1.8h21c1,0,1.8,0.8,1.8,1.8S505.7,897.1,504.7,897.1z"
		/>
	<path fill="#E6E6E6" d="M994.5,775h-21c-1,0-1.8-0.8-1.8-1.8s0.8-1.8,1.8-1.8h21c1,0,1.8,0.8,1.8,1.8S995.5,775,994.5,775z"/>
	<path fill="#E6E6E6" d="M1065.8,790.8h-66.4c-1,0-1.8-0.8-1.8-1.8c0-1,0.8-1.8,1.8-1.8h66.4c1,0,1.8,0.8,1.8,1.8
		C1067.6,790,1066.8,790.8,1065.8,790.8z"/>
	<path fill="#E6E6E6" d="M257.8,720.2h-66.4c-1,0-1.8-0.8-1.8-1.8c0-1,0.8-1.8,1.8-1.8h66.4c1,0,1.8,0.8,1.8,1.8
		C259.6,719.4,258.8,720.2,257.8,720.2z"/>
	<path fill="#E6E6E6" d="M1014.5,804h-15.1c-1,0-1.8-0.8-1.8-1.8s0.8-1.8,1.8-1.8h15.1c1,0,1.8,0.8,1.8,1.8S1015.5,804,1014.5,804z"
		/>
	<path fill="#E6E6E6" d="M1036.5,804h-7.6c-1,0-1.8-0.8-1.8-1.8s0.8-1.8,1.8-1.8h7.6c1,0,1.8,0.8,1.8,1.8S1037.5,804,1036.5,804z"/>
	<path fill="#E6E6E6" d="M1123.3,804h-12.8c-1,0-1.8-0.8-1.8-1.8s0.8-1.8,1.8-1.8h12.8c1,0,1.8,0.8,1.8,1.8S1124.3,804,1123.3,804z"
		/>
	<path fill="#E6E6E6" d="M1282.7,902.8h-12.8c-1,0-1.8-0.8-1.8-1.8c0-1,0.8-1.8,1.8-1.8h12.8c1,0,1.8,0.8,1.8,1.8
		C1284.5,902,1283.7,902.8,1282.7,902.8z"/>
	<path fill="#E6E6E6" d="M1139.7,804h-6.4c-1,0-1.8-0.8-1.8-1.8s0.8-1.8,1.8-1.8h6.4c1,0,1.8,0.8,1.8,1.8S1140.6,804,1139.7,804z"/>
	<path fill="#E6E6E6" d="M1136.6,714.6h-14c-1,0-1.8-0.8-1.8-1.8c0-1,0.8-1.8,1.8-1.8h14c1,0,1.8,0.8,1.8,1.8
		C1138.4,713.8,1137.6,714.6,1136.6,714.6z"/>
	<path fill="#E6E6E6" d="M1136.6,701.8H1102c-1,0-1.8-0.8-1.8-1.8s0.8-1.8,1.8-1.8h34.6c1,0,1.8,0.8,1.8,1.8
		S1137.6,701.8,1136.6,701.8z"/>
	<path fill="#E6E6E6" d="M990.8,701.8h-17.3c-1,0-1.8-0.8-1.8-1.8s0.8-1.8,1.8-1.8h17.3c1,0,1.8,0.8,1.8,1.8
		S991.8,701.8,990.8,701.8z"/>
	<path fill="#E6E6E6" d="M891,495.9h-53.4c-1,0-1.8-0.8-1.8-1.8s0.8-1.8,1.8-1.8H891c1,0,1.8,0.8,1.8,1.8S892,495.9,891,495.9z"/>
	<path fill="#E6E6E6" d="M126.2,495.9H72.8c-1,0-1.8-0.8-1.8-1.8s0.8-1.8,1.8-1.8h53.4c1,0,1.8,0.8,1.8,1.8S127.2,495.9,126.2,495.9
		z"/>
	<path fill="#E6E6E6" d="M905.9,523.5h-36.8c-1,0-1.8-0.8-1.8-1.8s0.8-1.8,1.8-1.8h36.8c1,0,1.8,0.8,1.8,1.8
		S906.9,523.5,905.9,523.5z"/>
	<path fill="#E6E6E6" d="M1081.4,663.4h-36.8c-1,0-1.8-0.8-1.8-1.8c0-1,0.8-1.8,1.8-1.8h36.8c1,0,1.8,0.8,1.8,1.8
		C1083.1,662.6,1082.4,663.4,1081.4,663.4z"/>
	<path fill="#E6E6E6" d="M1014.5,701.8h-8.7c-1,0-1.8-0.8-1.8-1.8s0.8-1.8,1.8-1.8h8.7c1,0,1.8,0.8,1.8,1.8
		S1015.5,701.8,1014.5,701.8z"/>
	<path fill="#E6E6E6" d="M1035.4,701.8h-6.3c-1,0-1.8-0.8-1.8-1.8s0.8-1.8,1.8-1.8h6.3c1,0,1.8,0.8,1.8,1.8
		S1036.4,701.8,1035.4,701.8z"/>
	<path fill="#E6E6E6" d="M1152,804h-6.4c-1,0-1.8-0.8-1.8-1.8s0.8-1.8,1.8-1.8h6.4c1,0,1.8,0.8,1.8,1.8S1153,804,1152,804z"/>
	<path fill="#E6E6E6" d="M64.2,922.7h-6.4c-1,0-1.8-0.8-1.8-1.8c0-1,0.8-1.8,1.8-1.8h6.4c1,0,1.8,0.8,1.8,1.8
		C66,921.9,65.2,922.7,64.2,922.7z"/>
	<path fill="#E6E6E6" d="M1205.9,885.6h-6.4c-1,0-1.8-0.8-1.8-1.8s0.8-1.8,1.8-1.8h6.4c1,0,1.8,0.8,1.8,1.8
		S1206.9,885.6,1205.9,885.6z"/>
	<path fill="#E6E6E6" d="M1181.3,885.6h-6.4c-1,0-1.8-0.8-1.8-1.8s0.8-1.8,1.8-1.8h6.4c1,0,1.8,0.8,1.8,1.8
		S1182.3,885.6,1181.3,885.6z"/>
	<path fill="#E6E6E6" d="M323.3,659.4h-5.7c-1,0-1.8-0.8-1.8-1.8s0.8-1.8,1.8-1.8h5.7c1,0,1.8,0.8,1.8,1.8S324.3,659.4,323.3,659.4z
		"/>
	<path fill="#E6E6E6" d="M315.7,561.2h-35.1c-1,0-1.8-0.8-1.8-1.8c0-1,0.8-1.8,1.8-1.8h35.1c1,0,1.8,0.8,1.8,1.8
		C317.5,560.4,316.7,561.2,315.7,561.2z"/>
	<path fill="#E6E6E6" d="M586,549.1h-96.7c-1,0-1.8-0.8-1.8-1.8c0-1,0.8-1.8,1.8-1.8H586c1,0,1.8,0.8,1.8,1.8
		C587.7,548.4,587,549.1,586,549.1z"/>
	<path fill="#E6E6E6" d="M544,80.6h-54.7c-1,0-1.8-0.8-1.8-1.8s0.8-1.8,1.8-1.8H544c1,0,1.8,0.8,1.8,1.8S545,80.6,544,80.6z"/>
	<path fill="#E6E6E6" d="M643.6,97h-101c-1,0-1.8-0.8-1.8-1.8s0.8-1.8,1.8-1.8h101c1,0,1.8,0.8,1.8,1.8S644.5,97,643.6,97z"/>
	<path fill="#E6E6E6" d="M135.6,97h-101c-1,0-1.8-0.8-1.8-1.8s0.8-1.8,1.8-1.8h101c1,0,1.8,0.8,1.8,1.8S136.5,97,135.6,97z"/>
	<path fill="#E6E6E6" d="M701.5,97h-19.4c-1,0-1.8-0.8-1.8-1.8s0.8-1.8,1.8-1.8h19.4c1,0,1.8,0.8,1.8,1.8S702.5,97,701.5,97z"/>
	<path fill="#E6E6E6" d="M727.2,298h-40.3c-1,0-1.8-0.8-1.8-1.8c0-1,0.8-1.8,1.8-1.8h40.3c1,0,1.8,0.8,1.8,1.8
		C729,297.2,728.2,298,727.2,298z"/>
	<path fill="#E6E6E6" d="M705.7,339.6h-18.8c-1,0-1.8-0.8-1.8-1.8c0-1,0.8-1.8,1.8-1.8h18.8c1,0,1.8,0.8,1.8,1.8
		C707.4,338.8,706.6,339.6,705.7,339.6z"/>
	<path fill="#E6E6E6" d="M740.7,339.6h-14c-1,0-1.8-0.8-1.8-1.8c0-1,0.8-1.8,1.8-1.8h14c1,0,1.8,0.8,1.8,1.8
		C742.5,338.8,741.7,339.6,740.7,339.6z"/>
	<path fill="#E6E6E6" d="M310.7,339.6h-14c-1,0-1.8-0.8-1.8-1.8c0-1,0.8-1.8,1.8-1.8h14c1,0,1.8,0.8,1.8,1.8
		C312.4,338.8,311.6,339.6,310.7,339.6z"/>
	<path fill="#E6E6E6" d="M330.2,359.1h-14c-1,0-1.8-0.8-1.8-1.8c0-1,0.8-1.8,1.8-1.8h14c1,0,1.8,0.8,1.8,1.8
		C331.9,358.3,331.2,359.1,330.2,359.1z"/>
	<path fill="#E6E6E6" d="M767.4,339.6h-7.1c-1,0-1.8-0.8-1.8-1.8c0-1,0.8-1.8,1.8-1.8h7.1c1,0,1.8,0.8,1.8,1.8
		C769.2,338.8,768.4,339.6,767.4,339.6z"/>
	<path fill="#E6E6E6" d="M359.3,339.6h-7.1c-1,0-1.8-0.8-1.8-1.8c0-1,0.8-1.8,1.8-1.8h7.1c1,0,1.8,0.8,1.8,1.8
		C361,338.8,360.2,339.6,359.3,339.6z"/>
	<path fill="#E6E6E6" d="M378.6,339.6h-7.1c-1,0-1.8-0.8-1.8-1.8c0-1,0.8-1.8,1.8-1.8h7.1c1,0,1.8,0.8,1.8,1.8
		C380.4,338.8,379.6,339.6,378.6,339.6z"/>
	<path fill="#E6E6E6" d="M786.9,339.6h-7.1c-1,0-1.8-0.8-1.8-1.8c0-1,0.8-1.8,1.8-1.8h7.1c1,0,1.8,0.8,1.8,1.8
		C788.6,338.8,787.8,339.6,786.9,339.6z"/>
	<path fill="#E6E6E6" d="M806.3,339.6h-7.1c-1,0-1.8-0.8-1.8-1.8c0-1,0.8-1.8,1.8-1.8h7.1c1,0,1.8,0.8,1.8,1.8
		C808.1,338.8,807.3,339.6,806.3,339.6z"/>
	<path fill="#E6E6E6" d="M1038.9,367.2h-7.1c-1,0-1.8-0.8-1.8-1.8c0-1,0.8-1.8,1.8-1.8h7.1c1,0,1.8,0.8,1.8,1.8
		C1040.7,366.4,1039.9,367.2,1038.9,367.2z"/>
	<path fill="#E6E6E6" d="M208.9,367.2h-7.1c-1,0-1.8-0.8-1.8-1.8c0-1,0.8-1.8,1.8-1.8h7.1c1,0,1.8,0.8,1.8,1.8
		C210.6,366.4,209.8,367.2,208.9,367.2z"/>
	<path fill="#E6E6E6" d="M222.8,367.2h-7.1c-1,0-1.8-0.8-1.8-1.8c0-1,0.8-1.8,1.8-1.8h7.1c1,0,1.8,0.8,1.8,1.8
		C224.6,366.4,223.8,367.2,222.8,367.2z"/>
	<path fill="#E6E6E6" d="M1071.8,367.2h-7.1c-1,0-1.8-0.8-1.8-1.8c0-1,0.8-1.8,1.8-1.8h7.1c1,0,1.8,0.8,1.8,1.8
		C1073.6,366.4,1072.8,367.2,1071.8,367.2z"/>
	<path fill="#E6E6E6" d="M1358.3,550.9h-7.1c-1,0-1.8-0.8-1.8-1.8c0-1,0.8-1.8,1.8-1.8h7.1c1,0,1.8,0.8,1.8,1.8
		C1360.1,550.1,1359.3,550.9,1358.3,550.9z"/>
	<path fill="#E6E6E6" d="M1163.9,417.7h-7.1c-1,0-1.8-0.8-1.8-1.8c0-1,0.8-1.8,1.8-1.8h7.1c1,0,1.8,0.8,1.8,1.8
		C1165.6,416.9,1164.9,417.7,1163.9,417.7z"/>
	<path fill="#E6E6E6" d="M187.7,789.1h-7.1c-1,0-1.8-0.8-1.8-1.8c0-1,0.8-1.8,1.8-1.8h7.1c1,0,1.8,0.8,1.8,1.8
		C189.5,788.3,188.7,789.1,187.7,789.1z"/>
	<path fill="#E6E6E6" d="M1002.2,367.2h-7.1c-1,0-1.8-0.8-1.8-1.8c0-1,0.8-1.8,1.8-1.8h7.1c1,0,1.8,0.8,1.8,1.8
		C1004,366.4,1003.2,367.2,1002.2,367.2z"/>
	<path fill="#E6E6E6" d="M1169.2,525.5h-7.1c-1,0-1.8-0.8-1.8-1.8s0.8-1.8,1.8-1.8h7.1c1,0,1.8,0.8,1.8,1.8
		S1170.1,525.5,1169.2,525.5z"/>
	<path fill="#E6E6E6" d="M1195.4,525.5h-7.1c-1,0-1.8-0.8-1.8-1.8s0.8-1.8,1.8-1.8h7.1c1,0,1.8,0.8,1.8,1.8
		S1196.4,525.5,1195.4,525.5z"/>
	<path fill="#E6E6E6" d="M1211.2,525.5h-7.1c-1,0-1.8-0.8-1.8-1.8s0.8-1.8,1.8-1.8h7.1c1,0,1.8,0.8,1.8,1.8
		S1212.2,525.5,1211.2,525.5z"/>
	<path fill="#E6E6E6" d="M1233.9,525.5h-7.1c-1,0-1.8-0.8-1.8-1.8s0.8-1.8,1.8-1.8h7.1c1,0,1.8,0.8,1.8,1.8
		S1234.9,525.5,1233.9,525.5z"/>
	<path fill="#E6E6E6" d="M193,367.2h-7.1c-1,0-1.8-0.8-1.8-1.8c0-1,0.8-1.8,1.8-1.8h7.1c1,0,1.8,0.8,1.8,1.8
		C194.8,366.4,194,367.2,193,367.2z"/>
	<path fill="#E6E6E6" d="M551.8,710.5h-30c-1,0-1.8-0.8-1.8-1.8c0-1,0.8-1.8,1.8-1.8h30c1,0,1.8,0.8,1.8,1.8
		C553.5,709.7,552.7,710.5,551.8,710.5z"/>
	<path fill="#E6E6E6" d="M574.5,723.7h-19.6c-1,0-1.8-0.8-1.8-1.8s0.8-1.8,1.8-1.8h19.6c1,0,1.8,0.8,1.8,1.8
		S575.4,723.7,574.5,723.7z"/>
	<path fill="#E6E6E6" d="M1376.1,771.1h-19.6c-1,0-1.8-0.8-1.8-1.8c0-1,0.8-1.8,1.8-1.8h19.6c1,0,1.8,0.8,1.8,1.8
		C1377.9,770.3,1377.1,771.1,1376.1,771.1z"/>
	<path fill="#E6E6E6" d="M150,933.6h-19.6c-1,0-1.8-0.8-1.8-1.8s0.8-1.8,1.8-1.8H150c1,0,1.8,0.8,1.8,1.8S151,933.6,150,933.6z"/>
	<path fill="#E6E6E6" d="M1315.9,720.1h-19.6c-1,0-1.8-0.8-1.8-1.8c0-1,0.8-1.8,1.8-1.8h19.6c1,0,1.8,0.8,1.8,1.8
		C1317.6,719.3,1316.8,720.1,1315.9,720.1z"/>
	<path fill="#E6E6E6" d="M1245.5,771.1h-19.6c-1,0-1.8-0.8-1.8-1.8s0.8-1.8,1.8-1.8h19.6c1,0,1.8,0.8,1.8,1.8
		S1246.5,771.1,1245.5,771.1z"/>
	<path fill="#E6E6E6" d="M715.4,744.7h-19.6c-1,0-1.8-0.8-1.8-1.8c0-1,0.8-1.8,1.8-1.8h19.6c1,0,1.8,0.8,1.8,1.8
		C717.2,743.9,716.4,744.7,715.4,744.7z"/>
	<path fill="#E6E6E6" d="M746.6,744.7h-9.2c-1,0-1.8-0.8-1.8-1.8c0-1,0.8-1.8,1.8-1.8h9.2c1,0,1.8,0.8,1.8,1.8
		C748.3,743.9,747.5,744.7,746.6,744.7z"/>
	<path fill="#E6E6E6" d="M763.8,744.7h-9.2c-1,0-1.8-0.8-1.8-1.8c0-1,0.8-1.8,1.8-1.8h9.2c1,0,1.8,0.8,1.8,1.8
		C765.5,743.9,764.7,744.7,763.8,744.7z"/>
	<path fill="#E6E6E6" d="M760.6,762.5h-34.9c-1,0-1.8-0.8-1.8-1.8s0.8-1.8,1.8-1.8h34.9c1,0,1.8,0.8,1.8,1.8
		S761.5,762.5,760.6,762.5z"/>
	<path fill="#E6E6E6" d="M371.1,459.2c-4,0-7.2-3.2-7.2-7.2c0-4,3.2-7.2,7.2-7.2c4,0,7.2,3.2,7.2,7.2
		C378.3,455.9,375.1,459.2,371.1,459.2z M371.1,446.5c-3,0-5.5,2.4-5.5,5.5c0,3,2.4,5.5,5.5,5.5c3,0,5.5-2.4,5.5-5.5
		C376.5,449,374.1,446.5,371.1,446.5z"/>
	<path fill="#E6E6E6" d="M1102,459.2c-4,0-7.2-3.2-7.2-7.2c0-4,3.2-7.2,7.2-7.2c4,0,7.2,3.2,7.2,7.2
		C1109.2,455.9,1106,459.2,1102,459.2z M1102,446.5c-3,0-5.5,2.4-5.5,5.5c0,3,2.4,5.5,5.5,5.5c3,0,5.5-2.4,5.5-5.5
		C1107.5,449,1105,446.5,1102,446.5z"/>
	<path fill="#E6E6E6" d="M841.9,64.7c-4,0-7.2-3.2-7.2-7.2s3.2-7.2,7.2-7.2s7.2,3.2,7.2,7.2S845.9,64.7,841.9,64.7z M841.9,52
		c-3,0-5.5,2.4-5.5,5.5s2.4,5.5,5.5,5.5c3,0,5.5-2.4,5.5-5.5S844.9,52,841.9,52z"/>
	<path fill="#E6E6E6" d="M586,835.5c-4,0-7.2-3.2-7.2-7.2s3.2-7.2,7.2-7.2s7.2,3.2,7.2,7.2S590,835.5,586,835.5z M586,822.8
		c-3,0-5.5,2.4-5.5,5.5s2.4,5.5,5.5,5.5c3,0,5.5-2.4,5.5-5.5S589,822.8,586,822.8z"/>
	<path fill="#E6E6E6" d="M1331.4,835.5c-4,0-7.2-3.2-7.2-7.2s3.2-7.2,7.2-7.2c4,0,7.2,3.2,7.2,7.2S1335.3,835.5,1331.4,835.5z
		 M1331.4,822.8c-3,0-5.5,2.4-5.5,5.5s2.4,5.5,5.5,5.5c3,0,5.5-2.4,5.5-5.5S1334.4,822.8,1331.4,822.8z"/>
	<path fill="#E6E6E6" d="M298.2,835.5c-4,0-7.2-3.2-7.2-7.2s3.2-7.2,7.2-7.2s7.2,3.2,7.2,7.2S302.2,835.5,298.2,835.5z M298.2,822.8
		c-3,0-5.5,2.4-5.5,5.5s2.4,5.5,5.5,5.5c3,0,5.5-2.4,5.5-5.5S301.2,822.8,298.2,822.8z"/>
	<path fill="#E6E6E6" d="M1360.1,652.2c-4,0-7.2-3.2-7.2-7.2s3.2-7.2,7.2-7.2c4,0,7.2,3.2,7.2,7.2S1364.1,652.2,1360.1,652.2z
		 M1360.1,639.5c-3,0-5.5,2.4-5.5,5.5s2.4,5.5,5.5,5.5s5.5-2.4,5.5-5.5S1363.1,639.5,1360.1,639.5z"/>
	<path fill="#E6E6E6" d="M56,241.1c-4,0-7.2-3.2-7.2-7.2c0-4,3.2-7.2,7.2-7.2s7.2,3.2,7.2,7.2C63.3,237.9,60,241.1,56,241.1z
		 M56,228.4c-3,0-5.5,2.4-5.5,5.5s2.4,5.5,5.5,5.5s5.5-2.4,5.5-5.5S59.1,228.4,56,228.4z"/>
	<path fill="#E6E6E6" d="M834.7,424.9c-4,0-7.2-3.2-7.2-7.2s3.2-7.2,7.2-7.2s7.2,3.2,7.2,7.2S838.6,424.9,834.7,424.9z M834.7,412.2
		c-3,0-5.5,2.4-5.5,5.5c0,3,2.4,5.5,5.5,5.5s5.5-2.4,5.5-5.5C840.1,414.7,837.7,412.2,834.7,412.2z"/>
	<path fill="#E6E6E6" d="M102,58.3c-4,0-7.2-3.2-7.2-7.2s3.2-7.2,7.2-7.2s7.2,3.2,7.2,7.2S106,58.3,102,58.3z M102,45.7
		c-3,0-5.5,2.4-5.5,5.5s2.4,5.5,5.5,5.5s5.5-2.4,5.5-5.5S105,45.7,102,45.7z"/>
	<path fill="#E6E6E6" d="M881.3,241.1c-4,0-7.2-3.2-7.2-7.2c0-4,3.2-7.2,7.2-7.2s7.2,3.2,7.2,7.2
		C888.6,237.9,885.3,241.1,881.3,241.1z M881.3,228.4c-3,0-5.5,2.4-5.5,5.5s2.4,5.5,5.5,5.5s5.5-2.4,5.5-5.5
		S884.3,228.4,881.3,228.4z"/>
	<path fill="#E6E6E6" d="M975.4,100.7c-4,0-7.2-3.2-7.2-7.2s3.2-7.2,7.2-7.2s7.2,3.2,7.2,7.2S979.4,100.7,975.4,100.7z M975.4,88
		c-3,0-5.5,2.4-5.5,5.5s2.4,5.5,5.5,5.5c3,0,5.5-2.4,5.5-5.5S978.4,88,975.4,88z"/>
	<path fill="#E6E6E6" d="M285.1,506.1c-4,0-7.2-3.2-7.2-7.2c0-4,3.2-7.2,7.2-7.2c4,0,7.2,3.2,7.2,7.2
		C292.3,502.8,289.1,506.1,285.1,506.1z M285.1,493.4c-3,0-5.5,2.4-5.5,5.5c0,3,2.4,5.5,5.5,5.5c3,0,5.5-2.4,5.5-5.5
		C290.5,495.9,288.1,493.4,285.1,493.4z"/>
	<path fill="#E6E6E6" d="M78.1,884.5c-4,0-7.2-3.2-7.2-7.2s3.2-7.2,7.2-7.2c4,0,7.2,3.2,7.2,7.2S82.1,884.5,78.1,884.5z M78.1,871.8
		c-3,0-5.5,2.4-5.5,5.5s2.4,5.5,5.5,5.5s5.5-2.4,5.5-5.5S81.1,871.8,78.1,871.8z"/>
	<path fill="#E6E6E6" d="M177,638.3c-4,0-7.2-3.2-7.2-7.2c0-4,3.2-7.2,7.2-7.2s7.2,3.2,7.2,7.2C184.2,635,180.9,638.3,177,638.3z
		 M177,625.6c-3,0-5.5,2.4-5.5,5.5c0,3,2.4,5.5,5.5,5.5s5.5-2.4,5.5-5.5C182.4,628,180,625.6,177,625.6z"/>
	<path fill="#E6E6E6" d="M224.6,121.4c-4,0-7.2-3.2-7.2-7.2c0-4,3.2-7.2,7.2-7.2s7.2,3.2,7.2,7.2
		C231.8,118.1,228.6,121.4,224.6,121.4z M224.6,108.7c-3,0-5.5,2.4-5.5,5.5s2.4,5.5,5.5,5.5s5.5-2.4,5.5-5.5
		S227.6,108.7,224.6,108.7z"/>
	<path fill="#E6E6E6" d="M224.6,918c-4,0-7.2-3.2-7.2-7.2c0-4,3.2-7.2,7.2-7.2s7.2,3.2,7.2,7.2C231.8,914.7,228.6,918,224.6,918z
		 M224.6,905.3c-3,0-5.5,2.4-5.5,5.5c0,3,2.4,5.5,5.5,5.5s5.5-2.4,5.5-5.5C230,907.7,227.6,905.3,224.6,905.3z"/>
	<path fill="#E6E6E6" d="M939.5,353.5c-4,0-7.2-3.2-7.2-7.2s3.2-7.2,7.2-7.2c4,0,7.2,3.2,7.2,7.2S943.5,353.5,939.5,353.5z
		 M939.5,340.8c-3,0-5.5,2.4-5.5,5.5c0,3,2.4,5.5,5.5,5.5c3,0,5.5-2.4,5.5-5.5C945,343.2,942.5,340.8,939.5,340.8z"/>
	<path fill="#E6E6E6" d="M92.3,353.5c-4,0-7.2-3.2-7.2-7.2s3.2-7.2,7.2-7.2c4,0,7.2,3.2,7.2,7.2S96.2,353.5,92.3,353.5z M92.3,340.8
		c-3,0-5.5,2.4-5.5,5.5c0,3,2.4,5.5,5.5,5.5c3,0,5.5-2.4,5.5-5.5C97.7,343.2,95.3,340.8,92.3,340.8z"/>
	<polygon fill="#E6E6E6" points="272.4,185.1 278.7,187.9 272.4,190.8 269.5,197.2 266.6,190.8 260.3,187.9 266.6,185.1 
		269.5,178.7 	"/>
	<polygon fill="#E6E6E6" points="310.5,275.5 315.3,277.7 310.5,279.8 308.4,284.6 306.2,279.8 301.5,277.7 306.2,275.5 
		308.4,270.7 	"/>
	<polygon fill="#E6E6E6" points="300.3,49 305.1,51.1 300.3,53.3 298.2,58 296,53.3 291.3,51.1 296,49 298.2,44.2 	"/>
	<polygon fill="#E6E6E6" points="457.6,97 462.3,99.2 457.6,101.3 455.4,106.1 453.3,101.3 448.5,99.2 453.3,97 455.4,92.3 	"/>
	<polygon fill="#E6E6E6" points="588.1,185.8 592.9,187.9 588.1,190.1 586,194.8 583.8,190.1 579.1,187.9 583.8,185.8 586,181 	"/>
	<polygon fill="#E6E6E6" points="418.8,928.4 423.6,930.5 418.8,932.6 416.7,937.4 414.5,932.6 409.7,930.5 414.5,928.4 
		416.7,923.6 	"/>
	<polygon fill="#E6E6E6" points="830.8,185.8 835.5,187.9 830.8,190.1 828.6,194.8 826.5,190.1 821.7,187.9 826.5,185.8 828.6,181 	
		"/>
	<polygon fill="#E6E6E6" points="721.5,42.1 726.3,44.2 721.5,46.3 719.4,51.1 717.2,46.3 712.5,44.2 717.2,42.1 719.4,37.3 	"/>
	<polygon fill="#E6E6E6" points="721.5,406.9 726.3,409 721.5,411.2 719.4,415.9 717.2,411.2 712.5,409 717.2,406.9 719.4,402.1 	
		"/>
	<polygon fill="#E6E6E6" points="579.8,324.1 584.5,326.2 579.8,328.4 577.6,333.1 575.5,328.4 570.7,326.2 575.5,324.1 
		577.6,319.3 	"/>
	<polygon fill="#E6E6E6" points="123.2,224.8 128,227 123.2,229.1 121,233.9 118.9,229.1 114.1,227 118.9,224.8 121,220.1 	"/>
	<polygon fill="#E6E6E6" points="219.5,286 224.3,288.1 219.5,290.2 217.4,295 215.2,290.2 210.5,288.1 215.2,286 217.4,281.2 	"/>
	<polygon fill="#E6E6E6" points="411.9,606 416.7,608.2 411.9,610.3 409.7,615.1 407.6,610.3 402.8,608.2 407.6,606 409.7,601.3 	
		"/>
	<polygon fill="#E6E6E6" points="385.2,849.6 390,851.8 385.2,853.9 383.1,858.7 380.9,853.9 376.2,851.8 380.9,849.6 383.1,844.9 	
		"/>
	<polygon fill="#E6E6E6" points="87.2,736.5 92,738.7 87.2,740.8 85,745.6 82.9,740.8 78.1,738.7 82.9,736.5 85,731.8 	"/>
	<polygon fill="#E6E6E6" points="1362.2,942.2 1367,944.3 1362.2,946.4 1360.1,951.2 1357.9,946.4 1353.2,944.3 1357.9,942.2 
		1360.1,937.4 	"/>
	<polygon fill="#E6E6E6" points="1319.8,295.8 1324.5,298 1319.8,300.1 1317.6,304.9 1315.5,300.1 1310.7,298 1315.5,295.8 
		1317.6,291.1 	"/>
	<polygon fill="#E6E6E6" points="160.4,434.4 165.1,436.5 160.4,438.7 158.2,443.5 156.1,438.7 151.3,436.5 156.1,434.4 
		158.2,429.6 	"/>
	<polygon fill="#E6E6E6" points="1308.2,56.2 1313,58.3 1308.2,60.5 1306.1,65.2 1303.9,60.5 1299.2,58.3 1303.9,56.2 1306.1,51.4 	
		"/>
	<polygon fill="#E6E6E6" points="572,935.3 576.8,937.4 572,939.5 569.9,944.3 567.7,939.5 563,937.4 567.7,935.3 569.9,930.5 	"/>
	<polygon fill="#E6E6E6" points="714.6,680.3 719.4,682.4 714.6,684.6 712.5,689.3 710.3,684.6 705.5,682.4 710.3,680.3 
		712.5,675.5 	"/>
	<polygon fill="#E6E6E6" points="1187.1,801.9 1191.9,804 1187.1,806.1 1185,810.9 1182.9,806.1 1178.1,804 1182.9,801.9 
		1185,797.1 	"/>
	<polygon fill="#E6E6E6" points="1080,749 1084.7,751.1 1080,753.2 1077.8,758 1075.7,753.2 1070.9,751.1 1075.7,749 1077.8,744.2 	
		"/>
	<polygon fill="#E6E6E6" points="994.3,413.8 999.1,415.9 994.3,418.1 992.2,422.8 990,418.1 985.3,415.9 990,413.8 992.2,409 	"/>
	<polygon fill="#E6E6E6" points="938.4,176.5 943.2,178.7 938.4,180.8 936.3,185.6 934.1,180.8 929.4,178.7 934.1,176.5 
		936.3,171.8 	"/>
	<polygon fill="#E6E6E6" points="1087.8,42.1 1092.6,44.2 1087.8,46.3 1085.6,51.1 1083.5,46.3 1078.7,44.2 1083.5,42.1 
		1085.6,37.3 	"/>
	<g>
		<circle fill="#E47D28" cx="397.3" cy="711.6" r="87.6"/>
		<path fill="#D5540A" d="M345.6,702.5l-33.7,28.7c1.1,4.9,2.6,9.7,4.6,14.5l38.2-32.4c2.9-2.5,3.3-6.9,0.8-9.9l0,0
			C353,700.3,348.5,700,345.6,702.5z"/>
		<path fill="#D5540A" d="M397,624.1l-55.9,47.6c-2.9,2.5-3.3,6.9-0.8,9.9c2.5,2.9,6.9,3.3,9.9,0.8l66.1-56.2
			C409.9,624.7,403.5,624,397,624.1z"/>
		<path fill="#D5540A" d="M482.6,691.8l-83.5,70.9c-2.9,2.5-3.3,6.9-0.8,9.9l0,0c2.5,2.9,6.9,3.3,9.9,0.8l76.6-65.1
			C484.6,702.8,483.8,697.3,482.6,691.8z"/>
		<path fill="#D5540A" d="M464,654.9c-4.4-5.2-9.3-9.7-14.5-13.6l-44.9,38.2c-2.9,2.5-3.3,6.9-0.8,9.9c2.5,2.9,6.9,3.3,9.9,0.8
			l20.9-17.8c2.9-2.5,7.4-2.1,9.9,0.8l0,0c2.5,2.9,2.1,7.4-0.8,9.9l-11,9.3c-2.9,2.5-3.3,6.9-0.8,9.9c2.5,2.9,6.9,3.3,9.9,0.8
			l34.5-29.3C473.1,667.1,469,660.8,464,654.9z"/>
		<path fill="#D5540A" d="M378.6,764.3c2.9-2.5,3.3-6.9,0.8-9.9c-2.5-2.9-6.9-3.3-9.9-0.8l19.4-16.5c2.9-2.5,3.3-6.9,0.8-9.9
			c-2.5-2.9-6.9-3.3-9.9-0.8l-49.3,41.9c6.4,7.5,13.7,13.6,21.7,18.4L378.6,764.3z"/>
	</g>
	<path fill="#E6E6E6" d="M335.6,589.2c1.8-0.6,2.8-2.4,2.4-4.2c-7.6-30.1-11.5-61.1-11.5-92.5c0-57.3,12.6-112.3,37.4-163.4
		c0.8-1.6,0.4-3.6-1-4.6c-1.8-1.3-4.3-0.6-5.2,1.3c-25.3,52.2-38.2,108.2-38.2,166.7c0,32,3.9,63.6,11.7,94.2
		C331.6,588.7,333.7,589.8,335.6,589.2L335.6,589.2z"/>
	<circle fill="#FF3D58" cx="310.7" cy="910.8" r="21.1"/>
	<g>
		<circle fill="#C03A2C" cx="1268.2" cy="613.8" r="60.5"/>
		<path fill="#DF4C31" d="M1315.2,575.7c-9.3-11.4-21.9-18.6-35.3-21.2l-23.2,18.8c-2.9,2.3-3.3,6.5-1,9.4l0,0
			c2.3,2.9,6.5,3.3,9.4,1l-15.6,12.6c-2.9,2.3-3.3,6.5-1,9.4v0c2.3,2.9,6.5,3.3,9.4,1l7.8-6.3c-2.9,2.3-3.3,6.5-1,9.4l0,0
			c2.3,2.9,6.5,3.3,9.4,1l13-10.5c-1,2.2-0.8,4.9,0.9,7c2.3,2.9,6.5,3.3,9.4,1l-15.2,12.4c-2.9,2.3-3.3,6.5-1,9.4
			c2.3,2.9,6.5,3.3,9.4,1l12.7-10.3c-2.9,2.3-3.3,6.5-1,9.4c2.3,2.9,6.5,3.3,9.4,1l17-13.8C1329.3,602.5,1325,587.8,1315.2,575.7z"
			/>
		<path fill="#DF4C31" d="M1264.3,651.9l9.7-7.9c2.9-2.3,3.3-6.5,1-9.4l0,0c-2.3-2.9-6.5-3.3-9.4-1l-9.7,7.9c-2.9,2.3-3.3,6.5-1,9.4
			v0C1257.2,653.8,1261.4,654.3,1264.3,651.9z"/>
		<path fill="#DF4C31" d="M1236,638.6l6.9-5.6c2.6-2.1,3-5.9,0.9-8.4l-0.8-1c-2.1-2.6-5.9-3-8.4-0.9l-6.9,5.6
			c-2.6,2.1-3,5.9-0.9,8.4l0.8,1C1229.6,640.3,1233.4,640.7,1236,638.6z"/>
	</g>
	<circle fill="#FC49C7" cx="78.8" cy="587.7" r="17.8"/>
	<circle fill="#EA5807" cx="151.3" cy="162.1" r="26.3"/>
	<circle fill="#FC49C7" cx="1286.8" cy="429.5" r="44.5"/>
</g>
</svg>
