<svg width="1400" height="879" viewBox="0 0 1400 879" fill="none" xmlns="http://www.w3.org/2000/svg">
<path d="M1400 -101H0V879H1400V-101Z" fill="#1E1D37"/>
<path d="M158.2 752C185.262 752 207.2 730.062 207.2 703C207.2 675.938 185.262 654 158.2 654C131.138 654 109.2 675.938 109.2 703C109.2 730.062 131.138 752 158.2 752Z" fill="#666666"/>
<path d="M204.8 687.7C204.7 687.3 204.5 686.8 204.4 686.4C204.4 686.3 204.3 686.2 204.3 686.1C204.1 685.7 204 685.3 203.8 684.8C201.5 678.9 198 673.4 193.3 668.6C180.8 655.8 162.9 651.4 146.7 655.3L143.5 658.4C141.4 660.5 141.3 663.9 143.4 666C145.4 668.1 148.7 668.2 150.9 666.2L146 671C143.9 673.1 143.8 676.5 145.9 678.6C148 680.7 151.4 680.8 153.5 678.7L141.9 690.1C139.8 692.2 139.7 695.6 141.8 697.7C143.9 699.8 147.3 699.9 149.4 697.8L155.2 692.1C153.1 694.2 153 697.6 155.1 699.7C157.2 701.8 160.6 701.9 162.7 699.8L172.3 690.3C171.6 692.2 172 694.3 173.5 695.9C175.6 698 179 698.1 181.1 696L169.8 707.1C167.7 709.2 167.6 712.6 169.7 714.7C171.8 716.8 175.2 716.9 177.3 714.8L186.8 705.5C184.7 707.6 184.6 711 186.7 713.1C188.8 715.2 192.2 715.3 194.3 713.2L198.8 708.8C197.9 710.8 198.2 713.2 199.8 714.8C201.2 716.2 203.3 716.7 205.1 716.2C208 707 207.8 697 204.8 687.7Z" fill="#808080"/>
<path d="M767.3 818.2C765.3 818.2 763.4 818.6 761.7 819.2C761.7 819.1 761.7 819.1 761.7 819C761.7 808.5 753.2 799.9 742.6 799.9C735.2 799.9 728.8 804.1 725.6 810.3C729.1 806.6 734 804.2 739.5 804.2C749.2 804.2 757.1 811.4 758.4 820.7C758.5 821.5 758.6 822.4 758.6 823.2C758.6 823.8 758.5 824.4 758.5 824.9C759.3 824.4 760.1 823.9 761 823.5C762.9 822.7 765 822.2 767.2 822.2C775.3 822.2 782 828.2 783.1 836.1C783.2 835.4 783.3 834.7 783.3 833.9C783.3 825.4 776.2 818.2 767.3 818.2Z" fill="white"/>
<path d="M916.9 765.9C910.4 765.9 904.7 769 901.1 773.8C896.4 760.8 884 751.5 869.4 751.5C850.8 751.5 835.6 766.6 835.6 785.3C835.6 787.5 835.8 789.6 836.2 791.7C836.5 773.7 851.1 759.1 869.3 759.1C882.3 759.1 893.5 766.6 898.9 777.5C899.6 779 900.3 780.5 900.8 782.1C901.3 781.1 901.9 780.1 902.5 779.2C906.1 774.2 911.9 770.9 918.5 770.9C926.3 770.9 932.9 775.4 936.2 781.9C934.6 772.8 926.6 765.9 916.9 765.9Z" fill="white"/>
<path d="M1002.2 769.2C995.8 765 991.5 757.8 991.4 749.6C989.8 748.5 988 747.5 986.2 746.7C986.1 747.5 986.1 748.4 986.1 749.3C986.1 757.6 990.4 765 996.9 769.2C997.8 769.1 998.6 769 999.5 769C1000.4 768.9 1001.3 769 1002.2 769.2Z" fill="white"/>
<path d="M1009.9 773.1C1009.8 773.1 1009.8 773.1 1009.9 773.1C1005 773.1 1000.6 771.7 996.8 769.2C989.5 770.4 984 776.7 984 784.4C984 787.1 984.7 789.6 985.9 791.7C985.7 790.7 985.6 789.7 985.6 788.7C985.6 780.2 992.5 773.3 1001 773.3C1006.8 773.3 1011.9 776.6 1014.5 781.4C1013.9 778.1 1012.2 775.2 1009.9 773.1Z" fill="white"/>
<path d="M1009.9 773.1C1009.6 772.8 1009.2 772.5 1008.9 772.2C1006.5 771.5 1004.3 770.5 1002.3 769.2C1001.4 769 1000.5 768.9 999.5 768.9C998.6 768.9 997.7 769 996.9 769.1C1000.5 771.6 1005 773.1 1009.9 773.1C1009.8 773.1 1009.8 773.1 1009.9 773.1Z" fill="white"/>
<path d="M770.9 753C770.3 752.2 769.6 751.5 768.9 750.8C760.3 761.9 760.4 771.6 760.4 771.6C763.1 759.7 770.9 753 770.9 753Z" fill="white"/>
<path d="M571.4 557.9L567 553.7L573.3 547.2C575 545.4 574.9 542.6 573.2 540.9L524.7 494.2C522.9 492.5 520.1 492.6 518.4 494.3L500.4 513C498.7 514.8 498.8 517.6 500.5 519.3L549 566C550.8 567.7 553.6 567.6 555.3 565.9L561.6 559.4L566 563.6L571.4 557.9Z" fill="#FF3A61"/>
<path d="M510.84 507.14L503.631 514.635L527.486 537.58L534.695 530.085L510.84 507.14Z" fill="#E6E6E6"/>
<path d="M544.014 520.503L520.159 497.558L512.95 505.053L536.805 527.998L544.014 520.503Z" fill="#E6E6E6"/>
<path d="M545.99 522.52L538.781 530.015L562.636 552.96L569.845 545.465L545.99 522.52Z" fill="#E6E6E6"/>
<path d="M529.562 539.568L553.417 562.513L560.626 555.018L536.771 532.073L529.562 539.568Z" fill="#E6E6E6"/>
<path d="M590.6 576.3L595 580.5L601.3 574C603 572.2 605.8 572.2 607.6 573.9L656.1 620.6C657.9 622.3 657.9 625.1 656.2 626.9L638.2 645.6C636.5 647.4 633.7 647.4 631.9 645.7L583.4 599C581.6 597.3 581.6 594.5 583.3 592.7L589.6 586.2L585.2 582L590.6 576.3Z" fill="#FF3A61"/>
<path d="M619.67 611.815L612.46 619.31L636.316 642.255L643.525 634.76L619.67 611.815Z" fill="#E6E6E6"/>
<path d="M621.634 609.797L645.489 632.742L652.699 625.247L628.843 602.302L621.634 609.797Z" fill="#E6E6E6"/>
<path d="M602.963 577.336L595.754 584.831L619.609 607.776L626.818 600.281L602.963 577.336Z" fill="#E6E6E6"/>
<path d="M617.729 609.811L593.873 586.866L586.664 594.362L610.519 617.307L617.729 609.811Z" fill="#E6E6E6"/>
<path d="M567.8 597.9L550.7 581.4C549.6 580.3 549.6 578.6 550.6 577.5L582.1 544.8C583.2 543.7 584.9 543.7 586 544.7L603.1 561.2C604.2 562.3 604.2 564 603.2 565.1L571.7 597.8C570.7 598.9 568.9 598.9 567.8 597.9Z" fill="#E6E6E6"/>
<path d="M588 531.8C585.4 539.4 587.3 548.2 593.5 554.1C599.7 560 608.5 561.5 616 558.7L588 531.8Z" fill="#E6E6E6"/>
<path d="M615.2 559.7L587.1 532.7C585.7 531.4 585.7 529.1 587 527.7C588.3 526.3 590.6 526.3 592 527.6L620.1 554.6C621.5 555.9 621.5 558.2 620.2 559.6C618.8 561 616.6 561 615.2 559.7Z" fill="#FF3A61"/>
<path d="M608.8 543.8L603.2 538.4L605.9 535.6C607.4 534 609.9 534 611.4 535.5C613 537 613 539.5 611.5 541L608.8 543.8Z" fill="#E6E6E6"/>
<path d="M556.5 571.4L550.6 577.5C549.5 578.6 549.6 580.3 550.7 581.4L567.8 597.9C568.9 599 570.6 598.9 571.7 597.8L577.6 591.7L556.5 571.4Z" fill="#FF3A61"/>
<path d="M366.5 51C387.432 51 404.4 34.0316 404.4 13.1C404.4 -7.83158 387.432 -24.8 366.5 -24.8C345.568 -24.8 328.6 -7.83158 328.6 13.1C328.6 34.0316 345.568 51 366.5 51Z" fill="#69C095"/>
<path d="M1276.3 753.5C1286.79 753.5 1295.3 744.993 1295.3 734.5C1295.3 724.007 1286.79 715.5 1276.3 715.5C1265.81 715.5 1257.3 724.007 1257.3 734.5C1257.3 744.993 1265.81 753.5 1276.3 753.5Z" fill="#69C095"/>
<path d="M381.4 0.499992C384.879 0.499992 387.7 -2.32062 387.7 -5.80001C387.7 -9.2794 384.879 -12.1 381.4 -12.1C377.921 -12.1 375.1 -9.2794 375.1 -5.80001C375.1 -2.32062 377.921 0.499992 381.4 0.499992Z" fill="#F2F2F2"/>
<path d="M364.7 9.60001C367.185 9.60001 369.2 7.58529 369.2 5.10001C369.2 2.61472 367.185 0.600006 364.7 0.600006C362.215 0.600006 360.2 2.61472 360.2 5.10001C360.2 7.58529 362.215 9.60001 364.7 9.60001Z" fill="#F2F2F2"/>
<path d="M459.9 300.3C459.5 300.3 459.1 300.2 458.7 300.1C456.9 299.4 455.9 297.4 456.6 295.6C459 289.1 461.6 282.7 464.5 276.5C465.3 274.7 467.4 274 469.2 274.8C471 275.6 471.7 277.7 470.9 279.5C468.1 285.6 465.5 291.8 463.2 298.1C462.7 299.4 461.4 300.3 459.9 300.3Z" fill="#F2F2F2"/>
<path d="M702.9 498.1C745.868 498.1 780.7 463.268 780.7 420.3C780.7 377.332 745.868 342.5 702.9 342.5C659.932 342.5 625.1 377.332 625.1 420.3C625.1 463.268 659.932 498.1 702.9 498.1Z" fill="#33B8E2"/>
<path d="M712.6 427.1L692.4 442.3C689.1 444.8 684.5 444.1 682 440.8C679.5 437.5 680.2 432.9 683.5 430.4L695.1 421.7C698.4 419.2 699 414.6 696.6 411.3C694.1 408 689.5 407.4 686.2 409.8L663.2 427.2C659.9 429.7 655.3 429 652.8 425.7C650.3 422.4 651 417.8 654.3 415.3L661.9 409.6C665.2 407.1 665.8 402.5 663.4 399.2C660.9 395.9 656.3 395.3 653 397.7L625.3 418.6C625 435.4 630 452.5 641 467C654.2 484.5 673.4 494.9 693.6 497.4L725.5 473.4C728.8 470.9 729.4 466.3 727 463C724.5 459.7 719.9 459.1 716.6 461.5L712.7 464.4C709.4 466.9 704.8 466.2 702.3 462.9C699.8 459.6 700.5 455 703.8 452.5L721.9 438.8C725.2 436.3 725.8 431.7 723.4 428.4C720.6 425.3 715.9 424.7 712.6 427.1Z" fill="#35D344"/>
<path d="M751.9 435.4C748.6 437.9 748 442.5 750.4 445.8C752.9 449.1 757.5 449.7 760.8 447.3L764.7 444.4C768 441.9 772.6 442.6 775.1 445.9C775.4 446.3 775.7 446.8 775.9 447.3C779.8 436.6 781.4 425.2 780.5 413.9L751.9 435.4Z" fill="#35D344"/>
<path d="M770.8 458.4L755.5 469.9C752.5 472.2 751.7 476.2 753.5 479.4C760.6 473.3 766.4 466.2 770.8 458.4Z" fill="#35D344"/>
<path d="M765.1 373.4C749.4 352.6 725.3 341.9 701.2 342.5C700.7 343.5 700 344.4 699 345.2L680.9 358.9C677.6 361.4 677 366 679.4 369.3C681.9 372.6 686.5 373.2 689.8 370.8L710 355.6C713.3 353.1 717.9 353.8 720.4 357.1C722.9 360.4 722.2 365 718.9 367.5L707.3 376.2C704 378.7 703.4 383.3 705.8 386.6C708.3 389.9 712.9 390.5 716.2 388.1L739.2 370.7C742.5 368.2 747.1 368.9 749.6 372.2C752.1 375.5 751.4 380.1 748.1 382.6L740.5 388.3C737.2 390.8 736.6 395.4 739 398.7C741.5 402 746.1 402.6 749.4 400.2L771.3 383.7C769.6 380 767.5 376.6 765.1 373.4Z" fill="#35D344"/>
<path d="M725.6 100.3C747.25 100.3 764.8 82.7496 764.8 61.1C764.8 39.4504 747.25 21.9 725.6 21.9C703.95 21.9 686.4 39.4504 686.4 61.1C686.4 82.7496 703.95 100.3 725.6 100.3Z" fill="#F4B821"/>
<path d="M298.2 448.1H263.1C262.1 448.1 261.3 447.3 261.3 446.3C261.3 445.3 262.1 444.5 263.1 444.5H298.2C299.2 444.5 300 445.3 300 446.3C299.9 447.4 299.1 448.1 298.2 448.1Z" fill="#E6E6E6"/>
<path d="M285.1 558.4H263.1C262.1 558.4 261.3 557.6 261.3 556.6C261.3 555.6 262.1 554.8 263.1 554.8H285.1C286.1 554.8 286.9 555.6 286.9 556.6C286.9 557.6 286 558.4 285.1 558.4Z" fill="#E6E6E6"/>
<path d="M309.2 558.4H298.2C297.2 558.4 296.4 557.6 296.4 556.6C296.4 555.6 297.2 554.8 298.2 554.8H309.2C310.2 554.8 311 555.6 311 556.6C311 557.6 310.1 558.4 309.2 558.4Z" fill="#E6E6E6"/>
<path d="M494.2 782.5H458.1C457.1 782.5 456.3 781.7 456.3 780.7C456.3 779.7 457.1 778.9 458.1 778.9H494.2C495.2 778.9 496 779.7 496 780.7C496 781.7 495.2 782.5 494.2 782.5Z" fill="#E6E6E6"/>
<path d="M504.7 796.1H483.7C482.7 796.1 481.9 795.3 481.9 794.3C481.9 793.3 482.7 792.5 483.7 792.5H504.7C505.7 792.5 506.5 793.3 506.5 794.3C506.5 795.3 505.7 796.1 504.7 796.1Z" fill="#E6E6E6"/>
<path d="M994.5 674H973.5C972.5 674 971.7 673.2 971.7 672.2C971.7 671.2 972.5 670.4 973.5 670.4H994.5C995.5 670.4 996.3 671.2 996.3 672.2C996.3 673.2 995.5 674 994.5 674Z" fill="#E6E6E6"/>
<path d="M1065.8 689.8H999.4C998.4 689.8 997.6 689 997.6 688C997.6 687 998.4 686.2 999.4 686.2H1065.8C1066.8 686.2 1067.6 687 1067.6 688C1067.6 689 1066.8 689.8 1065.8 689.8Z" fill="#E6E6E6"/>
<path d="M257.8 619.2H191.4C190.4 619.2 189.6 618.4 189.6 617.4C189.6 616.4 190.4 615.6 191.4 615.6H257.8C258.8 615.6 259.6 616.4 259.6 617.4C259.6 618.4 258.8 619.2 257.8 619.2Z" fill="#E6E6E6"/>
<path d="M1014.5 703H999.4C998.4 703 997.6 702.2 997.6 701.2C997.6 700.2 998.4 699.4 999.4 699.4H1014.5C1015.5 699.4 1016.3 700.2 1016.3 701.2C1016.3 702.2 1015.5 703 1014.5 703Z" fill="#E6E6E6"/>
<path d="M1036.5 703H1028.9C1027.9 703 1027.1 702.2 1027.1 701.2C1027.1 700.2 1027.9 699.4 1028.9 699.4H1036.5C1037.5 699.4 1038.3 700.2 1038.3 701.2C1038.3 702.2 1037.5 703 1036.5 703Z" fill="#E6E6E6"/>
<path d="M1123.3 703H1110.5C1109.5 703 1108.7 702.2 1108.7 701.2C1108.7 700.2 1109.5 699.4 1110.5 699.4H1123.3C1124.3 699.4 1125.1 700.2 1125.1 701.2C1125.1 702.2 1124.3 703 1123.3 703Z" fill="#E6E6E6"/>
<path d="M1282.7 801.8H1269.9C1268.9 801.8 1268.1 801 1268.1 800C1268.1 799 1268.9 798.2 1269.9 798.2H1282.7C1283.7 798.2 1284.5 799 1284.5 800C1284.5 801 1283.7 801.8 1282.7 801.8Z" fill="#E6E6E6"/>
<path d="M1139.7 703H1133.3C1132.3 703 1131.5 702.2 1131.5 701.2C1131.5 700.2 1132.3 699.4 1133.3 699.4H1139.7C1140.7 699.4 1141.5 700.2 1141.5 701.2C1141.5 702.2 1140.6 703 1139.7 703Z" fill="#E6E6E6"/>
<path d="M1136.6 613.6H1122.6C1121.6 613.6 1120.8 612.8 1120.8 611.8C1120.8 610.8 1121.6 610 1122.6 610H1136.6C1137.6 610 1138.4 610.8 1138.4 611.8C1138.4 612.8 1137.6 613.6 1136.6 613.6Z" fill="#E6E6E6"/>
<path d="M1136.6 600.8H1102C1101 600.8 1100.2 600 1100.2 599C1100.2 598 1101 597.2 1102 597.2H1136.6C1137.6 597.2 1138.4 598 1138.4 599C1138.4 600 1137.6 600.8 1136.6 600.8Z" fill="#E6E6E6"/>
<path d="M990.8 600.8H973.5C972.5 600.8 971.7 600 971.7 599C971.7 598 972.5 597.2 973.5 597.2H990.8C991.8 597.2 992.6 598 992.6 599C992.6 600 991.8 600.8 990.8 600.8Z" fill="#E6E6E6"/>
<path d="M891 394.9H837.6C836.6 394.9 835.8 394.1 835.8 393.1C835.8 392.1 836.6 391.3 837.6 391.3H891C892 391.3 892.8 392.1 892.8 393.1C892.8 394.1 892 394.9 891 394.9Z" fill="#E6E6E6"/>
<path d="M126.2 394.9H72.8C71.8 394.9 71 394.1 71 393.1C71 392.1 71.8 391.3 72.8 391.3H126.2C127.2 391.3 128 392.1 128 393.1C128 394.1 127.2 394.9 126.2 394.9Z" fill="#E6E6E6"/>
<path d="M905.9 422.5H869.1C868.1 422.5 867.3 421.7 867.3 420.7C867.3 419.7 868.1 418.9 869.1 418.9H905.9C906.9 418.9 907.7 419.7 907.7 420.7C907.7 421.7 906.9 422.5 905.9 422.5Z" fill="#E6E6E6"/>
<path d="M1081.4 562.4H1044.6C1043.6 562.4 1042.8 561.6 1042.8 560.6C1042.8 559.6 1043.6 558.8 1044.6 558.8H1081.4C1082.4 558.8 1083.2 559.6 1083.2 560.6C1083.1 561.6 1082.4 562.4 1081.4 562.4Z" fill="#E6E6E6"/>
<path d="M1014.5 600.8H1005.8C1004.8 600.8 1004 600 1004 599C1004 598 1004.8 597.2 1005.8 597.2H1014.5C1015.5 597.2 1016.3 598 1016.3 599C1016.3 600 1015.5 600.8 1014.5 600.8Z" fill="#E6E6E6"/>
<path d="M1035.4 600.8H1029.1C1028.1 600.8 1027.3 600 1027.3 599C1027.3 598 1028.1 597.2 1029.1 597.2H1035.4C1036.4 597.2 1037.2 598 1037.2 599C1037.2 600 1036.4 600.8 1035.4 600.8Z" fill="#E6E6E6"/>
<path d="M1152 703H1145.6C1144.6 703 1143.8 702.2 1143.8 701.2C1143.8 700.2 1144.6 699.4 1145.6 699.4H1152C1153 699.4 1153.8 700.2 1153.8 701.2C1153.8 702.2 1153 703 1152 703Z" fill="#E6E6E6"/>
<path d="M64.2 821.7H57.8C56.8 821.7 56 820.9 56 819.9C56 818.9 56.8 818.1 57.8 818.1H64.2C65.2 818.1 66 818.9 66 819.9C66 820.9 65.2 821.7 64.2 821.7Z" fill="#E6E6E6"/>
<path d="M1205.9 784.6H1199.5C1198.5 784.6 1197.7 783.8 1197.7 782.8C1197.7 781.8 1198.5 781 1199.5 781H1205.9C1206.9 781 1207.7 781.8 1207.7 782.8C1207.7 783.8 1206.9 784.6 1205.9 784.6Z" fill="#E6E6E6"/>
<path d="M1181.3 784.6H1174.9C1173.9 784.6 1173.1 783.8 1173.1 782.8C1173.1 781.8 1173.9 781 1174.9 781H1181.3C1182.3 781 1183.1 781.8 1183.1 782.8C1183.1 783.8 1182.3 784.6 1181.3 784.6Z" fill="#E6E6E6"/>
<path d="M323.3 558.4H317.6C316.6 558.4 315.8 557.6 315.8 556.6C315.8 555.6 316.6 554.8 317.6 554.8H323.3C324.3 554.8 325.1 555.6 325.1 556.6C325.1 557.6 324.3 558.4 323.3 558.4Z" fill="#E6E6E6"/>
<path d="M315.7 460.2H280.6C279.6 460.2 278.8 459.4 278.8 458.4C278.8 457.4 279.6 456.6 280.6 456.6H315.7C316.7 456.6 317.5 457.4 317.5 458.4C317.5 459.4 316.7 460.2 315.7 460.2Z" fill="#E6E6E6"/>
<path d="M586 448.1H489.3C488.3 448.1 487.5 447.3 487.5 446.3C487.5 445.3 488.3 444.5 489.3 444.5H586C587 444.5 587.8 445.3 587.8 446.3C587.7 447.4 587 448.1 586 448.1Z" fill="#E6E6E6"/>
<path d="M727.2 197H686.9C685.9 197 685.1 196.2 685.1 195.2C685.1 194.2 685.9 193.4 686.9 193.4H727.2C728.2 193.4 729 194.2 729 195.2C729 196.2 728.2 197 727.2 197Z" fill="#E6E6E6"/>
<path d="M705.7 238.6H686.9C685.9 238.6 685.1 237.8 685.1 236.8C685.1 235.8 685.9 235 686.9 235H705.7C706.7 235 707.5 235.8 707.5 236.8C707.4 237.8 706.6 238.6 705.7 238.6Z" fill="#E6E6E6"/>
<path d="M740.7 238.6H726.7C725.7 238.6 724.9 237.8 724.9 236.8C724.9 235.8 725.7 235 726.7 235H740.7C741.7 235 742.5 235.8 742.5 236.8C742.5 237.8 741.7 238.6 740.7 238.6Z" fill="#E6E6E6"/>
<path d="M310.7 238.6H296.7C295.7 238.6 294.9 237.8 294.9 236.8C294.9 235.8 295.7 235 296.7 235H310.7C311.7 235 312.5 235.8 312.5 236.8C312.4 237.8 311.6 238.6 310.7 238.6Z" fill="#E6E6E6"/>
<path d="M330.2 258.1H316.2C315.2 258.1 314.4 257.3 314.4 256.3C314.4 255.3 315.2 254.5 316.2 254.5H330.2C331.2 254.5 332 255.3 332 256.3C331.9 257.3 331.2 258.1 330.2 258.1Z" fill="#E6E6E6"/>
<path d="M767.4 238.6H760.3C759.3 238.6 758.5 237.8 758.5 236.8C758.5 235.8 759.3 235 760.3 235H767.4C768.4 235 769.2 235.8 769.2 236.8C769.2 237.8 768.4 238.6 767.4 238.6Z" fill="#E6E6E6"/>
<path d="M359.3 238.6H352.2C351.2 238.6 350.4 237.8 350.4 236.8C350.4 235.8 351.2 235 352.2 235H359.3C360.3 235 361.1 235.8 361.1 236.8C361 237.8 360.2 238.6 359.3 238.6Z" fill="#E6E6E6"/>
<path d="M378.6 238.6H371.5C370.5 238.6 369.7 237.8 369.7 236.8C369.7 235.8 370.5 235 371.5 235H378.6C379.6 235 380.4 235.8 380.4 236.8C380.4 237.8 379.6 238.6 378.6 238.6Z" fill="#E6E6E6"/>
<path d="M786.9 238.6H779.8C778.8 238.6 778 237.8 778 236.8C778 235.8 778.8 235 779.8 235H786.9C787.9 235 788.7 235.8 788.7 236.8C788.6 237.8 787.8 238.6 786.9 238.6Z" fill="#E6E6E6"/>
<path d="M806.3 238.6H799.2C798.2 238.6 797.4 237.8 797.4 236.8C797.4 235.8 798.2 235 799.2 235H806.3C807.3 235 808.1 235.8 808.1 236.8C808.1 237.8 807.3 238.6 806.3 238.6Z" fill="#E6E6E6"/>
<path d="M1038.9 266.2H1031.8C1030.8 266.2 1030 265.4 1030 264.4C1030 263.4 1030.8 262.6 1031.8 262.6H1038.9C1039.9 262.6 1040.7 263.4 1040.7 264.4C1040.7 265.4 1039.9 266.2 1038.9 266.2Z" fill="#E6E6E6"/>
<path d="M208.9 266.2H201.8C200.8 266.2 200 265.4 200 264.4C200 263.4 200.8 262.6 201.8 262.6H208.9C209.9 262.6 210.7 263.4 210.7 264.4C210.6 265.4 209.8 266.2 208.9 266.2Z" fill="#E6E6E6"/>
<path d="M222.8 266.2H215.7C214.7 266.2 213.9 265.4 213.9 264.4C213.9 263.4 214.7 262.6 215.7 262.6H222.8C223.8 262.6 224.6 263.4 224.6 264.4C224.6 265.4 223.8 266.2 222.8 266.2Z" fill="#E6E6E6"/>
<path d="M1071.8 266.2H1064.7C1063.7 266.2 1062.9 265.4 1062.9 264.4C1062.9 263.4 1063.7 262.6 1064.7 262.6H1071.8C1072.8 262.6 1073.6 263.4 1073.6 264.4C1073.6 265.4 1072.8 266.2 1071.8 266.2Z" fill="#E6E6E6"/>
<path d="M1358.3 449.9H1351.2C1350.2 449.9 1349.4 449.1 1349.4 448.1C1349.4 447.1 1350.2 446.3 1351.2 446.3H1358.3C1359.3 446.3 1360.1 447.1 1360.1 448.1C1360.1 449.1 1359.3 449.9 1358.3 449.9Z" fill="#E6E6E6"/>
<path d="M1163.9 316.7H1156.8C1155.8 316.7 1155 315.9 1155 314.9C1155 313.9 1155.8 313.1 1156.8 313.1H1163.9C1164.9 313.1 1165.7 313.9 1165.7 314.9C1165.6 315.9 1164.9 316.7 1163.9 316.7Z" fill="#E6E6E6"/>
<path d="M187.7 688.1H180.6C179.6 688.1 178.8 687.3 178.8 686.3C178.8 685.3 179.6 684.5 180.6 684.5H187.7C188.7 684.5 189.5 685.3 189.5 686.3C189.5 687.3 188.7 688.1 187.7 688.1Z" fill="#E6E6E6"/>
<path d="M1002.2 266.2H995.1C994.1 266.2 993.3 265.4 993.3 264.4C993.3 263.4 994.1 262.6 995.1 262.6H1002.2C1003.2 262.6 1004 263.4 1004 264.4C1004 265.4 1003.2 266.2 1002.2 266.2Z" fill="#E6E6E6"/>
<path d="M1169.2 424.5H1162.1C1161.1 424.5 1160.3 423.7 1160.3 422.7C1160.3 421.7 1161.1 420.9 1162.1 420.9H1169.2C1170.2 420.9 1171 421.7 1171 422.7C1171 423.7 1170.1 424.5 1169.2 424.5Z" fill="#E6E6E6"/>
<path d="M1195.4 424.5H1188.3C1187.3 424.5 1186.5 423.7 1186.5 422.7C1186.5 421.7 1187.3 420.9 1188.3 420.9H1195.4C1196.4 420.9 1197.2 421.7 1197.2 422.7C1197.2 423.7 1196.4 424.5 1195.4 424.5Z" fill="#E6E6E6"/>
<path d="M1211.2 424.5H1204.1C1203.1 424.5 1202.3 423.7 1202.3 422.7C1202.3 421.7 1203.1 420.9 1204.1 420.9H1211.2C1212.2 420.9 1213 421.7 1213 422.7C1213 423.7 1212.2 424.5 1211.2 424.5Z" fill="#E6E6E6"/>
<path d="M1233.9 424.5H1226.8C1225.8 424.5 1225 423.7 1225 422.7C1225 421.7 1225.8 420.9 1226.8 420.9H1233.9C1234.9 420.9 1235.7 421.7 1235.7 422.7C1235.7 423.7 1234.9 424.5 1233.9 424.5Z" fill="#E6E6E6"/>
<path d="M193 266.2H185.9C184.9 266.2 184.1 265.4 184.1 264.4C184.1 263.4 184.9 262.6 185.9 262.6H193C194 262.6 194.8 263.4 194.8 264.4C194.8 265.4 194 266.2 193 266.2Z" fill="#E6E6E6"/>
<path d="M551.8 609.5H521.8C520.8 609.5 520 608.7 520 607.7C520 606.7 520.8 605.9 521.8 605.9H551.8C552.8 605.9 553.6 606.7 553.6 607.7C553.5 608.7 552.7 609.5 551.8 609.5Z" fill="#E6E6E6"/>
<path d="M574.5 622.7H554.9C553.9 622.7 553.1 621.9 553.1 620.9C553.1 619.9 553.9 619.1 554.9 619.1H574.5C575.5 619.1 576.3 619.9 576.3 620.9C576.3 621.9 575.4 622.7 574.5 622.7Z" fill="#E6E6E6"/>
<path d="M1376.1 670.1H1356.5C1355.5 670.1 1354.7 669.3 1354.7 668.3C1354.7 667.3 1355.5 666.5 1356.5 666.5H1376.1C1377.1 666.5 1377.9 667.3 1377.9 668.3C1377.9 669.3 1377.1 670.1 1376.1 670.1Z" fill="#E6E6E6"/>
<path d="M150 832.6H130.4C129.4 832.6 128.6 831.8 128.6 830.8C128.6 829.8 129.4 829 130.4 829H150C151 829 151.8 829.8 151.8 830.8C151.8 831.8 151 832.6 150 832.6Z" fill="#E6E6E6"/>
<path d="M1315.9 619.1H1296.3C1295.3 619.1 1294.5 618.3 1294.5 617.3C1294.5 616.3 1295.3 615.5 1296.3 615.5H1315.9C1316.9 615.5 1317.7 616.3 1317.7 617.3C1317.6 618.3 1316.8 619.1 1315.9 619.1Z" fill="#E6E6E6"/>
<path d="M1245.5 670.1H1225.9C1224.9 670.1 1224.1 669.3 1224.1 668.3C1224.1 667.3 1224.9 666.5 1225.9 666.5H1245.5C1246.5 666.5 1247.3 667.3 1247.3 668.3C1247.3 669.3 1246.5 670.1 1245.5 670.1Z" fill="#E6E6E6"/>
<path d="M715.4 643.7H695.8C694.8 643.7 694 642.9 694 641.9C694 640.9 694.8 640.1 695.8 640.1H715.4C716.4 640.1 717.2 640.9 717.2 641.9C717.2 642.9 716.4 643.7 715.4 643.7Z" fill="#E6E6E6"/>
<path d="M746.6 643.7H737.4C736.4 643.7 735.6 642.9 735.6 641.9C735.6 640.9 736.4 640.1 737.4 640.1H746.6C747.6 640.1 748.4 640.9 748.4 641.9C748.3 642.9 747.5 643.7 746.6 643.7Z" fill="#E6E6E6"/>
<path d="M763.8 643.7H754.6C753.6 643.7 752.8 642.9 752.8 641.9C752.8 640.9 753.6 640.1 754.6 640.1H763.8C764.8 640.1 765.6 640.9 765.6 641.9C765.5 642.9 764.7 643.7 763.8 643.7Z" fill="#E6E6E6"/>
<path d="M760.6 661.5H725.7C724.7 661.5 723.9 660.7 723.9 659.7C723.9 658.7 724.7 657.9 725.7 657.9H760.6C761.6 657.9 762.4 658.7 762.4 659.7C762.4 660.7 761.5 661.5 760.6 661.5Z" fill="#E6E6E6"/>
<path d="M371.1 358.2C367.1 358.2 363.9 355 363.9 351C363.9 347 367.1 343.8 371.1 343.8C375.1 343.8 378.3 347 378.3 351C378.3 354.9 375.1 358.2 371.1 358.2ZM371.1 345.5C368.1 345.5 365.6 347.9 365.6 351C365.6 354 368 356.5 371.1 356.5C374.1 356.5 376.6 354.1 376.6 351C376.5 348 374.1 345.5 371.1 345.5Z" fill="#E6E6E6"/>
<path d="M1102 358.2C1098 358.2 1094.8 355 1094.8 351C1094.8 347 1098 343.8 1102 343.8C1106 343.8 1109.2 347 1109.2 351C1109.2 354.9 1106 358.2 1102 358.2ZM1102 345.5C1099 345.5 1096.5 347.9 1096.5 351C1096.5 354 1098.9 356.5 1102 356.5C1105 356.5 1107.5 354.1 1107.5 351C1107.5 348 1105 345.5 1102 345.5Z" fill="#E6E6E6"/>
<path d="M586 734.5C582 734.5 578.8 731.3 578.8 727.3C578.8 723.3 582 720.1 586 720.1C590 720.1 593.2 723.3 593.2 727.3C593.2 731.3 590 734.5 586 734.5ZM586 721.8C583 721.8 580.5 724.2 580.5 727.3C580.5 730.4 582.9 732.8 586 732.8C589 732.8 591.5 730.4 591.5 727.3C591.5 724.2 589 721.8 586 721.8Z" fill="#E6E6E6"/>
<path d="M1331.4 734.5C1327.4 734.5 1324.2 731.3 1324.2 727.3C1324.2 723.3 1327.4 720.1 1331.4 720.1C1335.4 720.1 1338.6 723.3 1338.6 727.3C1338.6 731.3 1335.3 734.5 1331.4 734.5ZM1331.4 721.8C1328.4 721.8 1325.9 724.2 1325.9 727.3C1325.9 730.4 1328.3 732.8 1331.4 732.8C1334.4 732.8 1336.9 730.4 1336.9 727.3C1336.9 724.2 1334.4 721.8 1331.4 721.8Z" fill="#E6E6E6"/>
<path d="M298.2 734.5C294.2 734.5 291 731.3 291 727.3C291 723.3 294.2 720.1 298.2 720.1C302.2 720.1 305.4 723.3 305.4 727.3C305.4 731.3 302.2 734.5 298.2 734.5ZM298.2 721.8C295.2 721.8 292.7 724.2 292.7 727.3C292.7 730.4 295.1 732.8 298.2 732.8C301.2 732.8 303.7 730.4 303.7 727.3C303.7 724.2 301.2 721.8 298.2 721.8Z" fill="#E6E6E6"/>
<path d="M1360.1 551.2C1356.1 551.2 1352.9 548 1352.9 544C1352.9 540 1356.1 536.8 1360.1 536.8C1364.1 536.8 1367.3 540 1367.3 544C1367.3 548 1364.1 551.2 1360.1 551.2ZM1360.1 538.5C1357.1 538.5 1354.6 540.9 1354.6 544C1354.6 547.1 1357 549.5 1360.1 549.5C1363.2 549.5 1365.6 547.1 1365.6 544C1365.6 540.9 1363.1 538.5 1360.1 538.5Z" fill="#E6E6E6"/>
<path d="M56 140.1C52 140.1 48.8 136.9 48.8 132.9C48.8 128.9 52 125.7 56 125.7C60 125.7 63.2 128.9 63.2 132.9C63.3 136.9 60 140.1 56 140.1ZM56 127.4C53 127.4 50.5 129.8 50.5 132.9C50.5 136 52.9 138.4 56 138.4C59.1 138.4 61.5 136 61.5 132.9C61.5 129.8 59.1 127.4 56 127.4Z" fill="#E6E6E6"/>
<path d="M834.7 323.9C830.7 323.9 827.5 320.7 827.5 316.7C827.5 312.7 830.7 309.5 834.7 309.5C838.7 309.5 841.9 312.7 841.9 316.7C841.9 320.7 838.6 323.9 834.7 323.9ZM834.7 311.2C831.7 311.2 829.2 313.6 829.2 316.7C829.2 319.7 831.6 322.2 834.7 322.2C837.8 322.2 840.2 319.8 840.2 316.7C840.1 313.7 837.7 311.2 834.7 311.2Z" fill="#E6E6E6"/>
<path d="M881.3 140.1C877.3 140.1 874.1 136.9 874.1 132.9C874.1 128.9 877.3 125.7 881.3 125.7C885.3 125.7 888.5 128.9 888.5 132.9C888.6 136.9 885.3 140.1 881.3 140.1ZM881.3 127.4C878.3 127.4 875.8 129.8 875.8 132.9C875.8 136 878.2 138.4 881.3 138.4C884.4 138.4 886.8 136 886.8 132.9C886.8 129.8 884.3 127.4 881.3 127.4Z" fill="#E6E6E6"/>
<path d="M285.1 405.1C281.1 405.1 277.9 401.9 277.9 397.9C277.9 393.9 281.1 390.7 285.1 390.7C289.1 390.7 292.3 393.9 292.3 397.9C292.3 401.8 289.1 405.1 285.1 405.1ZM285.1 392.4C282.1 392.4 279.6 394.8 279.6 397.9C279.6 400.9 282 403.4 285.1 403.4C288.1 403.4 290.6 401 290.6 397.9C290.5 394.9 288.1 392.4 285.1 392.4Z" fill="#E6E6E6"/>
<path d="M78.1 783.5C74.1 783.5 70.9 780.3 70.9 776.3C70.9 772.3 74.1 769.1 78.1 769.1C82.1 769.1 85.3 772.3 85.3 776.3C85.3 780.3 82.1 783.5 78.1 783.5ZM78.1 770.8C75.1 770.8 72.6 773.2 72.6 776.3C72.6 779.4 75 781.8 78.1 781.8C81.2 781.8 83.6 779.4 83.6 776.3C83.6 773.2 81.1 770.8 78.1 770.8Z" fill="#E6E6E6"/>
<path d="M177 537.3C173 537.3 169.8 534.1 169.8 530.1C169.8 526.1 173 522.9 177 522.9C181 522.9 184.2 526.1 184.2 530.1C184.2 534 180.9 537.3 177 537.3ZM177 524.6C174 524.6 171.5 527 171.5 530.1C171.5 533.1 173.9 535.6 177 535.6C180.1 535.6 182.5 533.2 182.5 530.1C182.4 527 180 524.6 177 524.6Z" fill="#E6E6E6"/>
<path d="M224.6 20.4C220.6 20.4 217.4 17.2 217.4 13.2C217.4 9.2 220.6 6 224.6 6C228.6 6 231.8 9.2 231.8 13.2C231.8 17.1 228.6 20.4 224.6 20.4ZM224.6 7.7C221.6 7.7 219.1 10.1 219.1 13.2C219.1 16.3 221.5 18.7 224.6 18.7C227.7 18.7 230.1 16.3 230.1 13.2C230.1 10.1 227.6 7.7 224.6 7.7Z" fill="#E6E6E6"/>
<path d="M224.6 817C220.6 817 217.4 813.8 217.4 809.8C217.4 805.8 220.6 802.6 224.6 802.6C228.6 802.6 231.8 805.8 231.8 809.8C231.8 813.7 228.6 817 224.6 817ZM224.6 804.3C221.6 804.3 219.1 806.7 219.1 809.8C219.1 812.8 221.5 815.3 224.6 815.3C227.7 815.3 230.1 812.9 230.1 809.8C230 806.7 227.6 804.3 224.6 804.3Z" fill="#E6E6E6"/>
<path d="M939.5 252.5C935.5 252.5 932.3 249.3 932.3 245.3C932.3 241.3 935.5 238.1 939.5 238.1C943.5 238.1 946.7 241.3 946.7 245.3C946.7 249.3 943.5 252.5 939.5 252.5ZM939.5 239.8C936.5 239.8 934 242.2 934 245.3C934 248.3 936.4 250.8 939.5 250.8C942.5 250.8 945 248.4 945 245.3C945 242.2 942.5 239.8 939.5 239.8Z" fill="#E6E6E6"/>
<path d="M92.3 252.5C88.3 252.5 85.1 249.3 85.1 245.3C85.1 241.3 88.3 238.1 92.3 238.1C96.3 238.1 99.5 241.3 99.5 245.3C99.5 249.3 96.2 252.5 92.3 252.5ZM92.3 239.8C89.3 239.8 86.8 242.2 86.8 245.3C86.8 248.3 89.2 250.8 92.3 250.8C95.3 250.8 97.8 248.4 97.8 245.3C97.7 242.2 95.3 239.8 92.3 239.8Z" fill="#E6E6E6"/>
<path d="M272.4 84.1L278.7 86.9L272.4 89.8L269.5 96.2L266.6 89.8L260.3 86.9L266.6 84.1L269.5 77.7L272.4 84.1Z" fill="#E6E6E6"/>
<path d="M310.5 174.5L315.3 176.7L310.5 178.8L308.4 183.6L306.2 178.8L301.5 176.7L306.2 174.5L308.4 169.7L310.5 174.5Z" fill="#E6E6E6"/>
<path d="M457.6 -4.00002L462.3 -1.80002L457.6 0.299988L455.4 5.09998L453.3 0.299988L448.5 -1.80002L453.3 -4.00002L455.4 -8.70001L457.6 -4.00002Z" fill="#E6E6E6"/>
<path d="M588.1 84.8L592.9 86.9L588.1 89.1L586 93.8L583.8 89.1L579.1 86.9L583.8 84.8L586 80L588.1 84.8Z" fill="#E6E6E6"/>
<path d="M418.8 827.4L423.6 829.5L418.8 831.6L416.7 836.4L414.5 831.6L409.7 829.5L414.5 827.4L416.7 822.6L418.8 827.4Z" fill="#E6E6E6"/>
<path d="M830.8 84.8L835.5 86.9L830.8 89.1L828.6 93.8L826.5 89.1L821.7 86.9L826.5 84.8L828.6 80L830.8 84.8Z" fill="#E6E6E6"/>
<path d="M721.5 305.9L726.3 308L721.5 310.2L719.4 314.9L717.2 310.2L712.5 308L717.2 305.9L719.4 301.1L721.5 305.9Z" fill="#E6E6E6"/>
<path d="M579.8 223.1L584.5 225.2L579.8 227.4L577.6 232.1L575.5 227.4L570.7 225.2L575.5 223.1L577.6 218.3L579.8 223.1Z" fill="#E6E6E6"/>
<path d="M123.2 123.8L128 126L123.2 128.1L121 132.9L118.9 128.1L114.1 126L118.9 123.8L121 119.1L123.2 123.8Z" fill="#E6E6E6"/>
<path d="M219.5 185L224.3 187.1L219.5 189.2L217.4 194L215.2 189.2L210.5 187.1L215.2 185L217.4 180.2L219.5 185Z" fill="#E6E6E6"/>
<path d="M411.9 505L416.7 507.2L411.9 509.3L409.7 514.1L407.6 509.3L402.8 507.2L407.6 505L409.7 500.3L411.9 505Z" fill="#E6E6E6"/>
<path d="M385.2 748.6L390 750.8L385.2 752.9L383.1 757.7L380.9 752.9L376.2 750.8L380.9 748.6L383.1 743.9L385.2 748.6Z" fill="#E6E6E6"/>
<path d="M87.2 635.5L92 637.7L87.2 639.8L85 644.6L82.9 639.8L78.1 637.7L82.9 635.5L85 630.8L87.2 635.5Z" fill="#E6E6E6"/>
<path d="M1362.2 841.2L1367 843.3L1362.2 845.4L1360.1 850.2L1357.9 845.4L1353.2 843.3L1357.9 841.2L1360.1 836.4L1362.2 841.2Z" fill="#E6E6E6"/>
<path d="M1319.8 194.8L1324.5 197L1319.8 199.1L1317.6 203.9L1315.5 199.1L1310.7 197L1315.5 194.8L1317.6 190.1L1319.8 194.8Z" fill="#E6E6E6"/>
<path d="M160.4 333.4L165.1 335.5L160.4 337.7L158.2 342.5L156.1 337.7L151.3 335.5L156.1 333.4L158.2 328.6L160.4 333.4Z" fill="#E6E6E6"/>
<path d="M572 834.3L576.8 836.4L572 838.5L569.9 843.3L567.7 838.5L563 836.4L567.7 834.3L569.9 829.5L572 834.3Z" fill="#E6E6E6"/>
<path d="M714.6 579.3L719.4 581.4L714.6 583.6L712.5 588.3L710.3 583.6L705.5 581.4L710.3 579.3L712.5 574.5L714.6 579.3Z" fill="#E6E6E6"/>
<path d="M1187.1 700.9L1191.9 703L1187.1 705.1L1185 709.9L1182.9 705.1L1178.1 703L1182.9 700.9L1185 696.1L1187.1 700.9Z" fill="#E6E6E6"/>
<path d="M1080 648L1084.7 650.1L1080 652.2L1077.8 657L1075.7 652.2L1070.9 650.1L1075.7 648L1077.8 643.2L1080 648Z" fill="#E6E6E6"/>
<path d="M994.3 312.8L999.1 314.9L994.3 317.1L992.2 321.8L990 317.1L985.3 314.9L990 312.8L992.2 308L994.3 312.8Z" fill="#E6E6E6"/>
<path d="M938.4 75.5L943.2 77.7L938.4 79.8L936.3 84.6L934.1 79.8L929.4 77.7L934.1 75.5L936.3 70.8L938.4 75.5Z" fill="#E6E6E6"/>
<path d="M397.3 698.2C445.68 698.2 484.9 658.98 484.9 610.6C484.9 562.22 445.68 523 397.3 523C348.92 523 309.7 562.22 309.7 610.6C309.7 658.98 348.92 698.2 397.3 698.2Z" fill="#E47D28"/>
<path d="M345.6 601.5L311.9 630.2C313 635.1 314.5 639.9 316.5 644.7L354.7 612.3C357.6 609.8 358 605.4 355.5 602.4C353 599.3 348.5 599 345.6 601.5Z" fill="#D5540A"/>
<path d="M397 523.1L341.1 570.7C338.2 573.2 337.8 577.6 340.3 580.6C342.8 583.5 347.2 583.9 350.2 581.4L416.3 525.2C409.9 523.7 403.5 523 397 523.1Z" fill="#D5540A"/>
<path d="M482.6 590.8L399.1 661.7C396.2 664.2 395.8 668.6 398.3 671.6C400.8 674.5 405.2 674.9 408.2 672.4L484.8 607.3C484.6 601.8 483.8 596.3 482.6 590.8Z" fill="#D5540A"/>
<path d="M464 553.9C459.6 548.7 454.7 544.2 449.5 540.3L404.6 578.5C401.7 581 401.3 585.4 403.8 588.4C406.3 591.3 410.7 591.7 413.7 589.2L434.6 571.4C437.5 568.9 442 569.3 444.5 572.2C447 575.1 446.6 579.6 443.7 582.1L432.7 591.4C429.8 593.9 429.4 598.3 431.9 601.3C434.4 604.2 438.8 604.6 441.8 602.1L476.3 572.8C473.1 566.1 469 559.8 464 553.9Z" fill="#D5540A"/>
<path d="M378.6 663.3C381.5 660.8 381.9 656.4 379.4 653.4C376.9 650.5 372.5 650.1 369.5 652.6L388.9 636.1C391.8 633.6 392.2 629.2 389.7 626.2C387.2 623.3 382.8 622.9 379.8 625.4L330.5 667.3C336.9 674.8 344.2 680.9 352.2 685.7L378.6 663.3Z" fill="#D5540A"/>
<path d="M310.7 830.9C322.353 830.9 331.8 821.453 331.8 809.8C331.8 798.147 322.353 788.7 310.7 788.7C299.047 788.7 289.6 798.147 289.6 809.8C289.6 821.453 299.047 830.9 310.7 830.9Z" fill="#FF3D58"/>
<path d="M1268.2 573.3C1301.61 573.3 1328.7 546.213 1328.7 512.8C1328.7 479.387 1301.61 452.3 1268.2 452.3C1234.79 452.3 1207.7 479.387 1207.7 512.8C1207.7 546.213 1234.79 573.3 1268.2 573.3Z" fill="#C03A2C"/>
<path d="M1315.2 474.7C1305.9 463.3 1293.3 456.1 1279.9 453.5L1256.7 472.3C1253.8 474.6 1253.4 478.8 1255.7 481.7C1258 484.6 1262.2 485 1265.1 482.7L1249.5 495.3C1246.6 497.6 1246.2 501.8 1248.5 504.7C1250.8 507.6 1255 508 1257.9 505.7L1265.7 499.4C1262.8 501.7 1262.4 505.9 1264.7 508.8C1267 511.7 1271.2 512.1 1274.1 509.8L1287.1 499.3C1286.1 501.5 1286.3 504.2 1288 506.3C1290.3 509.2 1294.5 509.6 1297.4 507.3L1282.2 519.7C1279.3 522 1278.9 526.2 1281.2 529.1C1283.5 532 1287.7 532.4 1290.6 530.1L1303.3 519.8C1300.4 522.1 1300 526.3 1302.3 529.2C1304.6 532.1 1308.8 532.5 1311.7 530.2L1328.7 516.4C1329.3 501.5 1325 486.8 1315.2 474.7Z" fill="#DF4C31"/>
<path d="M1264.3 550.9L1274 543C1276.9 540.7 1277.3 536.5 1275 533.6C1272.7 530.7 1268.5 530.3 1265.6 532.6L1255.9 540.5C1253 542.8 1252.6 547 1254.9 549.9C1257.2 552.8 1261.4 553.3 1264.3 550.9Z" fill="#DF4C31"/>
<path d="M1236 537.6L1242.9 532C1245.5 529.9 1245.9 526.1 1243.8 523.6L1243 522.6C1240.9 520 1237.1 519.6 1234.6 521.7L1227.7 527.3C1225.1 529.4 1224.7 533.2 1226.8 535.7L1227.6 536.7C1229.6 539.3 1233.4 539.7 1236 537.6Z" fill="#DF4C31"/>
<path d="M78.8 504.5C88.6307 504.5 96.6 496.531 96.6 486.7C96.6 476.869 88.6307 468.9 78.8 468.9C68.9693 468.9 61 476.869 61 486.7C61 496.531 68.9693 504.5 78.8 504.5Z" fill="#FC49C7"/>
<path d="M151.3 87.4C165.825 87.4 177.6 75.6251 177.6 61.1C177.6 46.5749 165.825 34.8 151.3 34.8C136.775 34.8 125 46.5749 125 61.1C125 75.6251 136.775 87.4 151.3 87.4Z" fill="#EA5807"/>
</svg>
